<?xml version="1.0" encoding="UTF-8" standalone="no"?>
<!-- Created with Inkscape (http://www.inkscape.org/) -->

<svg
   xmlns:dc="http://purl.org/dc/elements/1.1/"
   xmlns:cc="http://creativecommons.org/ns#"
   xmlns:rdf="http://www.w3.org/1999/02/22-rdf-syntax-ns#"
   xmlns:svg="http://www.w3.org/2000/svg"
   xmlns="http://www.w3.org/2000/svg"
   xmlns:sodipodi="http://sodipodi.sourceforge.net/DTD/sodipodi-0.dtd"
   xmlns:inkscape="http://www.inkscape.org/namespaces/inkscape"
   width="719.42462"
   height="741.03906"
   id="svg2"
   version="1.1"
   inkscape:version="0.48.4 r9939"
   sodipodi:docname="New document 1">
  <defs
     id="defs4" />
  <sodipodi:namedview
     id="base"
     pagecolor="#ffffff"
     bordercolor="#666666"
     borderopacity="1.0"
     inkscape:pageopacity="0.0"
     inkscape:pageshadow="2"
     inkscape:zoom="0.7"
     inkscape:cx="324.5238"
     inkscape:cy="396.8206"
     inkscape:document-units="px"
     inkscape:current-layer="layer1"
     showgrid="false"
     fit-margin-top="0"
     fit-margin-left="0"
     fit-margin-right="0"
     fit-margin-bottom="0"
     inkscape:window-width="1366"
     inkscape:window-height="706"
     inkscape:window-x="-8"
     inkscape:window-y="-8"
     inkscape:window-maximized="1" />
  <metadata
     id="metadata7">
    <rdf:RDF>
      <cc:Work
         rdf:about="">
        <dc:format>image/svg+xml</dc:format>
        <dc:type
           rdf:resource="http://purl.org/dc/dcmitype/StillImage" />
        <dc:title></dc:title>
      </cc:Work>
    </rdf:RDF>
  </metadata>
  <g
     inkscape:label="Layer 1"
     inkscape:groupmode="layer"
     id="layer1"
     transform="translate(-50.4762,54.292892)">
    <g
       id="g10"
       transform="matrix(7.1942507,0,0,-7.1942507,50.4762,686.73786)">
      <g
         id="g12"
         transform="scale(0.1,0.1)">
        <path
           d="m 933.191,607.66 c 18.704,4.969 37.817,-3.992 52.786,-14.558 14.413,-20.383 20.423,-50.325 4.816,-71.754 -23.559,-28.453 -77.805,-20.493 -90.449,14.933 -9.035,27.254 6.676,60.18 32.847,71.379 v 0"
           style="fill:#80e5ff;fill-opacity:1;fill-rule:nonzero;stroke:none"
           id="path14"
           inkscape:connector-curvature="0" />
        <path
           d="m 809.988,523.066 c -6.109,-3.734 -12.945,-6.347 -20.008,-7.539 -18.25,2.575 -23.82,23.403 -27.402,38.602 -3.547,25.23 -8.808,53.348 2.168,77.351 13.438,14.372 32.598,22.028 49.5,31.696 8.891,5.449 19.934,-0.375 23.859,-9.188 24.122,-42.781 9.297,-100.722 -28.117,-130.922 z M 588.652,355.035 C 578.27,279.703 566.621,204.137 545.156,131.043 537.102,105.766 529.07,79.6328 512.906,58.1719 507.379,50.4453 497.074,42.7891 487.445,48.2383 471.953,59.4766 465.758,78.7344 460.23,96.207 c -11.199,40.731 -15.421,83.145 -16.578,125.254 -0.933,42.519 16.692,82.539 37.817,118.457 38.418,65.144 83.773,125.809 125.367,188.863 -4.441,-58.054 -10.684,-115.992 -18.184,-173.746 z M 568.484,585.301 C 557.441,570.551 543.777,553.902 524.219,552 c -12.621,5.301 -11.387,21.504 -7.246,32.102 10.566,26.878 24.304,53.687 46.55,72.765 12.247,10.938 27.114,18.258 41.899,25.047 -0.383,-35.355 -17.07,-68.203 -36.938,-96.613 z M 410.84,563.836 c -6.309,-19.785 -16.199,-39.949 -33.75,-52.043 -10.453,-7.129 -28.594,-7.695 -33.035,6.684 -10.68,30.386 -5.942,63.461 -4.629,95.011 27.289,9.145 54.949,17.02 82.648,24.824 1.793,-25.386 -4.363,-50.285 -11.234,-74.476 z m -25.535,142.461 c 7.129,5.039 18.48,3.582 23.332,-3.852 3.804,-6.007 5.488,-13.062 7.918,-19.672 -25.203,-9.964 -51.633,-16.539 -77.95,-22.734 12.915,17.734 27.805,34.719 46.7,46.258 z m 505.586,-41.031 c -5.786,23.48 -19.407,48.308 -43.977,55.922 -24.004,8.363 -48.562,-3.883 -67.344,-18.333 -23.222,-19.074 -45.84,-39.082 -65.965,-61.48 -10.343,-11.5 -23.183,-20.277 -34.945,-30.168 1.34,22.996 2.805,46.07 7.278,68.731 1.984,8.472 0.671,17.062 -2.645,24.976 -13.481,1.641 -31.738,-3.176 -39.731,11.195 -8.542,11.539 -18.511,30.055 -35.906,24.309 -50.476,-19.27 -101.734,-36.742 -153.625,-51.785 -7.914,22.961 -21.574,45.582 -44.832,55.512 -27.328,12.472 -61.379,6.648 -84.039,-12.762 -29.265,-25.238 -43.379,-63.09 -71.754,-89.113 -5.519,-6.344 -14.031,-12.543 -12.992,-21.993 7.32,-12.168 17.961,-21.953 26.809,-33.035 -49.914,-42.414 -102.219,-82.023 -156.125,-119.238 -0.45,24.558 2.613,48.98 6.238,73.207 13.66,90.527 31.652,180.312 50.625,269.875 11.348,54.766 24.781,109.191 42.551,162.277 5.828,15.422 4.781,36.547 -10.711,45.847 -22.285,11.8 -48.867,12.4 -73.36,9.07 -7.164,-1.68 -15.828,-1.38 -20.867,-7.65 C 100.422,886.793 86.2031,753.07 62.7148,621.098 52.7109,569.582 43.4922,517.395 24.0781,468.414 19.0391,454.078 7.24219,443.852 0,430.785 c 8.21094,-19.043 22.9609,-34.539 41.6211,-43.57 16.875,-8.879 41.1445,-16.313 56.1875,-0.293 58.2034,52.41 115.9574,105.379 176.8794,154.699 6.613,-22.105 12.324,-47.379 32.406,-61.41 14.707,-11.465 34.683,-11.691 52.301,-8.781 31.695,7.367 57.57,31.328 73.093,59.215 17.778,36.507 19.641,77.949 24.754,117.558 16.875,8.399 34.313,15.606 51.219,23.891 -26.582,-36.321 -48.496,-80.149 -45.434,-126.332 -0.144,-14.782 14.262,-24.938 27.664,-26.953 23.934,-3.465 46.743,8.664 65.293,22.66 27.446,20.386 42.192,52.156 60.664,79.933 -1.57,-18.183 -4.96,-36.175 -7.683,-54.25 -55.93,-61.558 -110.32,-124.754 -159.262,-192.066 -29.758,-42.719 -59.433,-86.801 -74.891,-136.977 -7.914,-24.492 -7.167,-50.918 -1.714,-75.816 6.531,-30.844 16.199,-61.047 28.742,-89.9336 8.512,-18.0391 17.137,-36.6992 31.437,-50.9297 C 445.074,9.62891 461.758,5.80078 476.84,0.109375 510.293,-1.82031 540.039,19.6094 559.238,45.3672 c 24.074,32.4805 44.2,68.6128 54.395,107.9568 9.328,32.442 15.262,65.715 21.086,98.899 18.219,109.199 27.781,219.589 41.961,329.343 4.629,2.95 9.297,5.895 14.004,8.774 2.461,-32.817 11.867,-66.117 32.07,-92.539 17.512,-21.25 48.262,-20.84 72.871,-15.649 34.121,8.176 58.352,36.36 75.371,65.442 20.195,35.207 27.625,77.801 19.895,117.672"
           style="fill:#100f0d;fill-opacity:1;fill-rule:nonzero;stroke:none"
           id="path16"
           inkscape:connector-curvature="0" />
      </g>
    </g>
  </g>
</svg>
