<?xml version="1.0" ?><svg viewBox="0 0 1000 1000" xmlns="http://www.w3.org/2000/svg"><path d="m773.44 608.33a120.84 120.84 0 0 0 -69.21-37.69c-4.85-.8-9.87-1.3-14.66-.15-9 2.14-15.81 9.91-18.92 18.59s-3 18.18-2 27.35a152.9 152.9 0 0 0 23.35 65.91c1.87 2.9 3.92 5.83 6.86 7.63 3.72 2.27 8.31 2.44 12.67 2.31 15.67-.45 31.52-4 44.79-12.39s23.74-21.77 26.52-37.2"/><path d="m773.91 607.85a121.28 121.28 0 0 0 -54.48-34.76 114.81 114.81 0 0 0 -15.85-3.65c-6-.94-12.11-1.25-17.77 1.11-9.62 4-15.63 13.66-17.74 23.53-2.51 11.8-.76 24.45 1.6 36.15a154.63 154.63 0 0 0 11 33.74 152.08 152.08 0 0 0 8.48 15.95c2.85 4.66 5.86 9.82 11.13 12s11.39 1.6 16.9 1.17a100.72 100.72 0 0 0 17.51-2.87 74.62 74.62 0 0 0 29.82-15 58.65 58.65 0 0 0 17.45-24.9 46.66 46.66 0 0 0 1.91-7.37c.23-1.34-1.8-1.93-2.07-.57-4.1 20.7-20.47 36.17-39.82 43.23a93.72 93.72 0 0 1 -33 5.56 20.09 20.09 0 0 1 -8.26-1.5 16.13 16.13 0 0 1 -6.13-5.5 117.19 117.19 0 0 1 -8.52-14.17 152.44 152.44 0 0 1 -12.36-32.17c-2.87-11.07-4.93-22.82-4.51-34.3.38-10.48 3.77-21.4 12.45-28a23.26 23.26 0 0 1 15-4.59 77.88 77.88 0 0 1 16.59 2.66 121.51 121.51 0 0 1 54.36 29.74c1.85 1.76 3.64 3.59 5.37 5.47.59.64 1.52-.31.95-.95z"/><path d="m772.41 651.05-27.41-10.87c-25.85-10.24-54.27-20.61-80.76-12.18-14.63 4.65-26.91 14.59-38.49 24.66q-24.84 21.57-47.81 45.14c-10.07 10.33-22.2 21.84-36.51 20-3.18-.4-6.82-1.36-9.28.7-3.42 2.87-1.17 8.45 1.61 12a69.9 69.9 0 0 0 25.37 20 14 14 0 0 0 6.93 1.71c2.85-.26 5.3-2 7.6-3.77a805.81 805.81 0 0 1 80-52.78c8.13-4.69 16.85-9.78 20.77-18.31a132.5 132.5 0 0 1 71.48 27.61"/><path d="m772.58 650.44c-15.49-6.29-30.91-12.94-46.72-18.4-15-5.18-30.88-9.16-46.86-7.91a67.27 67.27 0 0 0 -21.91 5.5 96 96 0 0 0 -19.21 11.7c-6.09 4.67-11.88 9.67-17.58 14.72q-9.45 8.34-18.63 17t-18.08 17.56c-5.25 5.27-10.3 10.78-15.93 15.64-5.16 4.45-11 8.53-17.74 10.11a25.92 25.92 0 0 1 -9.93.26c-3-.44-6.43-.86-8.83 1.43-4.72 4.51.55 11.72 3.7 15.37a71.1 71.1 0 0 0 16.31 13.89 57.85 57.85 0 0 0 9.55 4.92 11.26 11.26 0 0 0 10.35-.84c3.35-2 6.39-4.62 9.54-6.93q5-3.64 10-7.22 20.32-14.41 41.51-27.57 10.49-6.51 21.17-12.7c5.79-3.35 11.78-6.69 16.52-11.49a27.63 27.63 0 0 0 5.44-7.65l-.87.5a131.68 131.68 0 0 1 70.62 27.45c1.25 1 3-.77 1.76-1.76a134 134 0 0 0 -72.36-27.74 1 1 0 0 0 -.87.5c-2.79 6-7.89 10.19-13.3 13.69-6.24 4-12.81 7.55-19.17 11.38q-20.55 12.35-40.34 25.91-10 6.84-19.76 14c-3.12 2.28-6.17 4.66-9.32 6.88a13.45 13.45 0 0 1 -4.86 2.42 10.06 10.06 0 0 1 -5.74-.83 63.41 63.41 0 0 1 -17.94-11.35 67.7 67.7 0 0 1 -7.35-7.51c-2-2.34-4-5.08-4.31-8.24a4.31 4.31 0 0 1 1.16-3.66 5.72 5.72 0 0 1 4.46-1.17c3.27.19 6.36 1 9.66.64 6.36-.6 12.2-3.53 17.32-7.23a118.65 118.65 0 0 0 15.09-13.71q8.48-8.67 17.2-17.09c11.45-11 23.17-21.82 35.36-32 11.31-9.48 23.67-18.17 38.31-21.41 15.24-3.39 31-.92 45.84 3.31 15.35 4.39 30.1 10.69 45 16.43l11.46 4.43c.77.29 1.08-.93.34-1.23z"/><path d="m762.25 539.41a120.33 120.33 0 0 0 -4.47-17.67 21.59 21.59 0 0 0 -2.81-6.4 16.09 16.09 0 0 0 -6.46-4.84c-9.33-4.27-20.53-3.71-30.43-2.05-3.84.64-7.74 2.12-10.2 5.15a14.62 14.62 0 0 0 -2.84 9.77c.27 7.24 2.71 18.42 9.11 22.78a7 7 0 0 0 4.32 1.38c3.53-.22 5.73-3.84 7.16-7.08a5.86 5.86 0 0 1 1.69-2.53 5.44 5.44 0 0 1 2-.75 73.56 73.56 0 0 1 13.79-1.79 6.68 6.68 0 0 1 2.32.19c1.84.6 2.84 2.51 4.08 4a11.57 11.57 0 0 0 9.1 4.11c.9 0 2-.34 2.17-1.23" fill="#18c4ff"/><path d="m713.56 516.41a4.4 4.4 0 0 0 .33.92c.13.32.25.65.4 1l.78 1.68c.54 1.16 1.13 2.29 1.71 3.43l.57-1.4h.15c.09 0 .08 0 0 0 .1.15-.13-.18-.08-.11a7.51 7.51 0 0 1 -.39-.67c-.29-.51-.57-1-.84-1.54s-.54-1-.79-1.57c-.13-.26-.25-.52-.37-.79 0 0-.24-.41-.21-.45a.22.22 0 0 1 0 .16 1 1 0 0 1 -.07.25l-.35.34h-.13l-.73-.09.23.13a.9.9 0 0 0 1.17-.23.94.94 0 0 0 -.07-1.2 1.11 1.11 0 0 0 -.88-.48 1.06 1.06 0 0 0 -.9.51 1.47 1.47 0 0 0 0 1.41c.35.83.74 1.63 1.15 2.43s.82 1.6 1.28 2.37 1.27 1.6 2.33 1.34a1 1 0 0 0 .57-1.4c-.6-1.12-1.18-2.26-1.82-3.36l-.92-1.6c-.16-.27-.33-.52-.5-.78a4.49 4.49 0 0 0 -.63-.87.6.6 0 0 0 -1 .57z"/><path d="m713.05 520.32a4.23 4.23 0 0 0 1.42 0c.44-.06.88-.16 1.32-.25s.83-.19 1.26-.25h.19.29.29s.39 0 .23 0v-1.82a16 16 0 0 1 -5.55 1.07 1 1 0 0 0 -1 1 1 1 0 0 0 1 1 16.55 16.55 0 0 0 6.29-1.27 1 1 0 0 0 .43-1.08 1 1 0 0 0 -.91-.69c-1.83-.18-3.55.77-5.25 1.27-.5.15-.57 1 0 1.09z"/><path d="m777 541.24a22.41 22.41 0 0 0 -17.76-22.88c-1.23-.26-2.89-.16-3.22 1a2.52 2.52 0 0 0 .82 2.16 28.33 28.33 0 0 0 4.53 4.36 6.3 6.3 0 0 0 -3.2 5.49c0 3.43 2.83 6.13 5.5 8.29" fill="#fff"/><path d="m777.57 541.24a22.83 22.83 0 0 0 -6.93-17.87 24.09 24.09 0 0 0 -7.78-4.91c-2-.77-5.78-2.25-7.43-.09-1 1.37-.13 2.91.8 4a28.33 28.33 0 0 0 4.41 4.21l.19-1.52a7.31 7.31 0 0 0 -3.53 7.63c.6 3.24 3.21 5.67 5.65 7.66.94.76 2.28-.56 1.34-1.33-1.94-1.59-4.06-3.41-4.89-5.85a5.39 5.39 0 0 1 2.41-6.44 1 1 0 0 0 .19-1.52 29.72 29.72 0 0 1 -4-3.75c-.38-.43-1.46-1.43-1-2 .36-.42 1.47-.25 1.91-.17a20.71 20.71 0 0 1 8.7 4 22.47 22.47 0 0 1 8.7 18 .62.62 0 0 0 1.24 0z"/><path d="m745 515a3.48 3.48 0 0 1 3.67 2.22 1.78 1.78 0 0 1 -.12 1.61 2 2 0 0 1 -.95.61 3.82 3.82 0 0 1 -3.59-.2 3.29 3.29 0 0 1 -.84-1 3 3 0 0 1 -.46-1.7 1.79 1.79 0 0 1 .9-1.45"/><path d="m745 515.6a3.84 3.84 0 0 1 1.16.22 3.24 3.24 0 0 1 .89.55l.41.41c.1.12.05.06 0 0l.1.14.17.28.07.15s0-.13 0 0l.09.29s0 .2 0 .11 0 .07 0 .07 0 .11 0 .17v.08s-.09.27 0 .17c-.06.11-.06.08 0 0l-.13.13c.06-.05-.15.08-.19.1a1.38 1.38 0 0 1 -.27.11 5.61 5.61 0 0 1 -.67.19l-.32.07s-.17 0 0 0h-.23-.51s-.17 0 0 0l-.31-.06h-.13s-.24-.09-.13 0a2 2 0 0 1 -.9-.77 2.38 2.38 0 0 1 -.46-1.45 1.17 1.17 0 0 1 .17-.47s.09-.12 0 0l.11-.12.28-.25a.78.78 0 0 0 -.75-1.29 2.2 2.2 0 0 0 -1.45 1.57 3.35 3.35 0 0 0 .21 2.29 4.27 4.27 0 0 0 1.28 1.69 3.77 3.77 0 0 0 1.93.72 5.31 5.31 0 0 0 2-.2 3.27 3.27 0 0 0 1.88-1.16c.8-1.16.19-2.74-.65-3.68a3.84 3.84 0 0 0 -3.78-1.13.57.57 0 0 0 .15 1.12z"/><path d="m726 523a3.48 3.48 0 0 1 3.67 2.22 1.78 1.78 0 0 1 -.12 1.61 2.11 2.11 0 0 1 -.95.61 3.82 3.82 0 0 1 -3.6-.21 3.37 3.37 0 0 1 -.83-1 3 3 0 0 1 -.46-1.7 1.76 1.76 0 0 1 .9-1.45"/><path d="m726 523.59a3.62 3.62 0 0 1 1.16.23 3 3 0 0 1 .88.55 4 4 0 0 1 .41.41c.11.11.05.05 0 0l.1.14a2.54 2.54 0 0 1 .16.28l.08.15s0-.13 0 0l.09.29s0 .19 0 .11 0 .06 0 .06a1.09 1.09 0 0 0 0 .18v.08s-.09.26 0 .16c0 .12 0 .09 0 .05l-.13.13c.06-.05-.16.08-.19.09a1.36 1.36 0 0 1 -.27.12c-.22.07-.45.14-.67.19l-.32.06s-.17 0 0 0h-.23-.51s-.17 0 0 0l-.31-.07h-.13s-.25-.09-.13 0a2 2 0 0 1 -.9-.78 2.33 2.33 0 0 1 -.46-1.44 1.08 1.08 0 0 1 .17-.47s.08-.13 0 0a1.27 1.27 0 0 1 .11-.13 3.22 3.22 0 0 0 .28-.24.78.78 0 0 0 -.75-1.29 2.2 2.2 0 0 0 -1.44 1.55 3.32 3.32 0 0 0 .21 2.28 4.31 4.31 0 0 0 1.28 1.7 3.77 3.77 0 0 0 1.93.72 5.24 5.24 0 0 0 2-.2 3.31 3.31 0 0 0 1.89-1.16c.8-1.16.19-2.74-.65-3.68a3.82 3.82 0 0 0 -3.78-1.13.57.57 0 0 0 .15 1.11z"/><path d="m742.76 524.62c.28.6.57 1.19.88 1.77l.94 1.74a.91.91 0 0 0 1.24.32.92.92 0 0 0 .33-1.24l-1.1-1.64c-.37-.55-.76-1.08-1.15-1.61a.68.68 0 0 0 -.91-.24.66.66 0 0 0 -.23.9z"/><path d="m746.62 524.78c-.49 0-1 0-1.48 0a11.82 11.82 0 0 0 -1.46.13c-.54.07-1.07.15-1.59.26a1.79 1.79 0 0 0 -.87.37.94.94 0 0 0 -.16 1.2.84.84 0 0 0 .74.43.93.93 0 0 0 .64-.27.82.82 0 0 0 0-1.13l.25.58c0-.07 0 0 0 .11l-.23.39c-.25.12-.29.16-.13.11h.14l.27-.08.58-.14c.37-.09.75-.17 1.12-.24.74-.14 1.48-.29 2.23-.38a.65.65 0 0 0 .62-.63.62.62 0 0 0 -.62-.62z"/><path d="m781.75 541.54a7.69 7.69 0 0 0 -6.12-1.41 22.62 22.62 0 0 0 -6.07 2.18 7.65 7.65 0 0 0 -2.56 1.69 2.63 2.63 0 0 0 -.55 2.87c-2.13-.18-4.06 1.56-4.8 3.57a13.51 13.51 0 0 0 -.25 6.36 176.5 176.5 0 0 0 4.6 21.04 3.24 3.24 0 0 0 .55 1.29c.7.82 2 .72 3 .47 6-1.45 11-5.56 14.72-10.47s6.17-10.6 8.48-16.3" fill="#18c4ff"/><path d="m262 531.46a120.21 120.21 0 0 1 4.47-17.66 21.59 21.59 0 0 1 2.81-6.4 16.2 16.2 0 0 1 6.46-4.85c9.33-4.26 20.53-3.7 30.43-2 3.84.64 7.74 2.12 10.2 5.15a14.68 14.68 0 0 1 2.84 9.77c-.27 7.23-2.71 18.42-9.11 22.78a7 7 0 0 1 -4.32 1.38c-3.53-.22-5.73-3.85-7.16-7.08a5.8 5.8 0 0 0 -1.7-2.53 5.33 5.33 0 0 0 -2-.75 74.52 74.52 0 0 0 -13.79-1.8 6.94 6.94 0 0 0 -2.32.2c-1.84.6-2.84 2.51-4.08 4a11.57 11.57 0 0 1 -9.1 4.11c-.9 0-2-.34-2.18-1.23" fill="#18c4ff"/><path d="m309.7 507.9a4.43 4.43 0 0 0 -.6.82c-.18.27-.36.54-.53.83l-.92 1.6c-.64 1.1-1.22 2.23-1.82 3.36a1 1 0 0 0 .56 1.4c1.07.26 1.83-.5 2.34-1.34s.87-1.57 1.28-2.37.79-1.61 1.15-2.43a1.47 1.47 0 0 0 0-1.41 1.07 1.07 0 0 0 -.87-.51 1.14 1.14 0 0 0 -.91.48.93.93 0 0 0 -.07 1.2.91.91 0 0 0 1.17.23l.23-.13-.74.09-.12-.05-.35-.34a1.17 1.17 0 0 1 -.07-.25.26.26 0 0 1 0-.17s-.16.35-.18.4c-.13.29-.27.57-.4.85-.25.53-.52 1-.79 1.57s-.55 1-.84 1.53a6 6 0 0 1 -.41.69c.1-.13-.17.26-.06.1-.11.05-.11.06 0 0a.38.38 0 0 1 .15 0l.57 1.4c.57-1.14 1.17-2.27 1.71-3.43l.78-1.68c.14-.3.26-.61.38-.91a5 5 0 0 0 .35-1 .6.6 0 0 0 -1-.57z"/><path d="m311.2 511.29c-1.7-.5-3.42-1.45-5.25-1.27a1 1 0 0 0 -.48 1.77 16.35 16.35 0 0 0 6.29 1.26 1 1 0 0 0 1-1 1 1 0 0 0 -1-1c-.51 0-1 0-1.51-.08a10.44 10.44 0 0 1 -1.24-.19 17.92 17.92 0 0 1 -2.8-.8v1.83h.18.61.15c.43.06.86.17 1.3.26s.84.18 1.27.24a4.27 4.27 0 0 0 1.47 0c.57-.1.5-.94 0-1.09z"/><path d="m247.3 533.3a22.41 22.41 0 0 1 17.76-22.88c1.23-.26 2.89-.16 3.22 1a2.56 2.56 0 0 1 -.82 2.17 27.84 27.84 0 0 1 -4.53 4.35 6.32 6.32 0 0 1 3.2 5.5c-.05 3.43-2.84 6.13-5.5 8.29" fill="#fff"/><path d="m247.92 533.3a22.49 22.49 0 0 1 8.69-18 20.63 20.63 0 0 1 8.71-4c.5-.09 1.51-.25 1.91.17.53.57-.59 1.61-1 2a29.22 29.22 0 0 1 -4 3.75 1 1 0 0 0 .2 1.52 5.38 5.38 0 0 1 2.41 6.44c-.82 2.44-3 4.27-4.89 5.85-.94.77.4 2.09 1.34 1.33 2.44-2 5.05-4.42 5.65-7.67a7.31 7.31 0 0 0 -3.53-7.62l.19 1.52a28.94 28.94 0 0 0 3.89-3.61c.9-1 2-2.22 1.73-3.68-.59-3-4.73-1.91-6.66-1.28a22.77 22.77 0 0 0 -15.89 23.2.62.62 0 0 0 1.24 0z"/><path d="m359.23 671.45q6.19 5.53 12.53 10.9a12.51 12.51 0 0 0 4.24 2.65c2.07.63 4.29.15 6.42-.19a46.29 46.29 0 0 1 7.71-.56 7.53 7.53 0 0 1 3.46.61c2.16 1.11 2.93 4 2.39 6.31s-2.06 4.36-3.55 6.27c-3.95 5-8 10.09-12.78 14.3s-10.56 7.57-16.87 8.69a13.86 13.86 0 0 1 -6.08-.08c-2.8-.79-5-2.83-7.1-4.87a131.44 131.44 0 0 1 -20.13-25.65"/><path d="m358.76 671.92c3.5 3.39 7.1 6.68 10.74 9.94a22.17 22.17 0 0 0 5.12 3.93 11 11 0 0 0 6.31.55 68.56 68.56 0 0 1 7.28-.76c1.84-.05 4.45-.38 5.75 1.23 2.75 3.41-.92 7.83-3 10.46-5.45 6.89-11.22 13.88-19 18.25-3.62 2-7.8 3.7-12 3.78-4.62.08-7.72-3.18-10.72-6.26a137.35 137.35 0 0 1 -9.87-11.28c-3.16-4-5.78-8.4-8.79-12.53a1.27 1.27 0 0 0 -2.19 1.28 78.06 78.06 0 0 0 8 12.13 127.72 127.72 0 0 0 9.35 11c3 3.19 6.35 7.05 10.79 8.18s9.32-.3 13.36-2.05c8.81-3.81 15.39-11.13 21.22-18.51 2.62-3.31 6.35-7.06 6.34-11.58a7.17 7.17 0 0 0 -1.79-4.85c-1.45-1.54-3.5-1.84-5.52-1.86a49.43 49.43 0 0 0 -8.5.72 15.79 15.79 0 0 1 -4.28.36 7.71 7.71 0 0 1 -3.69-1.69c-4.83-3.58-9.35-7.6-14-11.42-.65-.53-1.56.33-.94.94z"/><path d="m247.19 628.69c17.64-8.17 36.55-13.23 55.59-17.13 10.65-2.18 21.49-4 32.35-3.45s21.85 3.68 30.3 10.51a32.67 32.67 0 0 1 11.46 17.21c3.63 14.77-5.5 29.64-16 40.68-13.83 14.58-31.94 26.59-52 27.34-13.6.51-27-4.22-38.7-11.16s-22-16-32.16-25.07" fill="#fff"/><path d="m349.4 660.77c-13.27 12.47-30.12 19.72-47 26-4.78 1.77-9.63 3.32-14.34 5.27-1.42.59-.92 2.81.65 2.37 4.43-1.23 8.75-2.82 13.07-4.4s8.59-3.25 12.8-5.09a135.64 135.64 0 0 0 24.1-13.3 91.61 91.61 0 0 0 11.72-9.81c.65-.65-.34-1.63-1-1z"/><path d="m247.53 629.27a212.23 212.23 0 0 1 32.31-11.41 316.36 316.36 0 0 1 33.74-7.34c11.07-1.74 22.54-2.38 33.49.42 9.66 2.47 19 7.7 24.62 16.13a27.73 27.73 0 0 1 4.8 14 33.84 33.84 0 0 1 -2.62 14.28c-3.82 9.54-10.72 17.64-18.08 24.65-14.31 13.64-33 24.16-53.31 22.55-22.5-1.78-41-16.1-57.43-30.28q-3.13-2.7-6.24-5.43c-1.06-.92-2.61.6-1.56 1.55 16.83 15.14 35.05 30.94 57.93 35.47a59 59 0 0 0 31.05-2.21 84.8 84.8 0 0 0 26.35-15.65c8-6.74 15.4-14.61 20.54-23.75 5-8.89 7.63-19.5 4.09-29.4-3.46-9.66-11.57-16.94-20.8-21-10.18-4.48-21.41-5.45-32.41-4.55-12 1-23.88 3.69-35.54 6.56a235.47 235.47 0 0 0 -33.72 10.8q-4 1.64-7.85 3.45c-.78.37-.1 1.51.68 1.16z"/><rect fill="#18c4ff" height="256.25" rx="11.03" width="476.7" x="261.65" y="234.75"/><path d="m261.65 459.6v19.28a12.12 12.12 0 0 0 12.11 12.12h452.48a12.12 12.12 0 0 0 12.11-12.12v-19.28z" fill="#fff"/><path d="m727.32 489.35h-443.26c-3.64 0-7.27 0-10.9 0a9.58 9.58 0 0 1 -9.86-9.41c0-1.41 0-2.83 0-4.23v-228.8c0-5.57 3.41-10.35 9.38-10.51h2 448.64 3.59a9.56 9.56 0 0 1 9.79 9.44c.14 5.08 0 10.18 0 15.26v217.7c0 5.58-3.37 10.38-9.38 10.55-2.12.06-2.12 3.36 0 3.3a12.93 12.93 0 0 0 12.68-13.21c0-2.09 0-4.17 0-6.25v-211.83c0-5.17.11-10.35 0-15.52a12.89 12.89 0 0 0 -12.81-12.74c-1 0-1.93 0-2.9 0h-449.82c-1 0-2.06 0-3.08.07-6.87.71-11.35 6.59-11.39 13.25v19.06 210.16 4.3a12.9 12.9 0 0 0 12.84 12.71c3.21.06 6.43 0 9.64 0h444.84a1.65 1.65 0 0 0 0-3.3z" fill="#18c4ff"/><path d="m781.91 478.59a32.9 32.9 0 0 1 -6 14.33c-1 1.41-2.19 3.51-.9 4.71a7.72 7.72 0 0 0 1.3.78c1.85 1.17 1.87 3.8 1.76 6-.24 4.65.09 9.88 3.48 13.07s8.51 3.21 13 2.37c12.38-2.3 24.11-11.06 27.06-23.29a33.9 33.9 0 0 0 -.87-17.44c-1.25-4.21-3.17-8.34-6.36-11.35-5.76-5.42-14.9-6.16-22.26-3.24-5 2-9.89 8.66-10.2 14.07" fill="#fff"/><path d="m822.17 496.71a32.8 32.8 0 0 0 -.43-17.39c-1.38-4.82-3.61-9.69-7.56-12.93a20.74 20.74 0 0 0 -12.94-4.47c-4.41-.05-9.23.95-12.77 3.7-3.87 3-7.16 7.95-7.24 13 0 .9 1.24.84 1.35 0a18.34 18.34 0 0 1 6-10.74c3.11-2.82 7.39-4 11.52-4.09a19.58 19.58 0 0 1 11.96 3.21c3.87 2.72 6.15 7.12 7.55 11.53a36 36 0 0 1 1.39 17.86c-.15.74 1 1.06 1.14.32z"/><path d="m781.33 478.43a36 36 0 0 1 -5 12.28c-1 1.58-2.49 3.1-2.76 5a3 3 0 0 0 .43 2.1c.54.81 1.49 1 2.16 1.61 1.3 1.23 1.06 3.52 1 5.13a30.81 30.81 0 0 0 .18 5.68c.48 3.62 2 7.11 5.21 9.1 3.57 2.2 8.27 2.15 12.2 1.13.72-.18.6-1.41-.18-1.33-3.47.36-7.27.68-10.48-1-3.41-1.79-4.75-5.44-5.07-9.08a44.76 44.76 0 0 1 0-5.18 9.58 9.58 0 0 0 -.63-4.41 4.28 4.28 0 0 0 -1.25-1.61c-.82-.64-2-.81-1.71-2.11.38-1.77 2-3.35 2.94-4.86a31.14 31.14 0 0 0 4.17-12.32c.08-.66-1-.81-1.17-.16z"/><path d="m782.69 488.52a3.46 3.46 0 0 1 .41.66l-.1-.18a1.29 1.29 0 0 1 .08.26v-.21a1 1 0 0 1 0 .24v-.23a1 1 0 0 1 -.07.29l.09-.2a.83.83 0 0 1 -.08.12l.14-.17-.1.1.17-.14h.89l.18.14a.52.52 0 0 1 -.11-.1l.14.18a.83.83 0 0 1 -.07-.13l.09.21a.57.57 0 0 1 0-.14v.24a.76.76 0 0 1 0-.15v.25a.83.83 0 0 1 0-.15l-.09.23s0 0 0 0a.88.88 0 0 0 .13-.47v-.25a.92.92 0 0 0 -.54-.6.88.88 0 0 0 -.71 0 .67.67 0 0 0 -.3.19.91.91 0 0 0 -.24.41 1.37 1.37 0 0 0 -.07.45 1.86 1.86 0 0 0 0 .34v.11a1.49 1.49 0 0 0 .68.84.91.91 0 0 0 .56.1.46.46 0 0 0 .23-.06.75.75 0 0 0 .28-.18.76.76 0 0 0 .09-.09 1.5 1.5 0 0 0 .19-.25 1.46 1.46 0 0 0 .16-.41 1.43 1.43 0 0 0 0-.65 1.27 1.27 0 0 0 -.15-.41 1.71 1.71 0 0 0 -.44-.56 2.36 2.36 0 0 0 -.36-.26l-.26-.14a.62.62 0 0 0 -.73.09.92.92 0 0 0 -.16.27.61.61 0 0 0 .06.46z"/><path d="m802.73 489.19a1.34 1.34 0 0 0 -1.13.21 2 2 0 0 0 -.7 1 4 4 0 0 0 -.21 1 2.46 2.46 0 0 0 .22 1.13.65.65 0 0 0 .88.23 1.14 1.14 0 0 0 .5-.92 1.06 1.06 0 0 0 -.12-.53 1 1 0 0 0 -.38-.42.65.65 0 0 0 -.51-.07.63.63 0 0 0 -.4.31.67.67 0 0 0 .24.91c.09.06-.12-.11 0 0s-.09-.14 0 0 0-.17 0-.07 0 0 0-.05 0 .12 0 0 0 0 0 0 .06-.14 0-.09l.07-.08h.06l.87.23v-.08c.07.11 0 .07 0 0a1.24 1.24 0 0 1 0-.16c0-.11 0 0 0 0a.22.22 0 0 0 0-.08v-.19c0-.06 0-.13 0-.19s0 0 0 0 0-.06 0-.09 0-.24.08-.37a1.42 1.42 0 0 1 .05-.16s0-.13 0 0a.86.86 0 0 1 .1-.16c0-.08 0 0 0 0s0-.05 0-.06l.07-.06c.05-.05-.09 0 0 0h.07c.09-.05 0 0 0 0h.07.1a.59.59 0 0 0 .72-.41.58.58 0 0 0 -.41-.71z"/><path d="m822.84 529.62c-1.41-3.36-2.68-6.79-3.77-10.27s-1.82-7.06-2.75-10.61c-.28-1.08-1.85-.61-1.65.46a80.42 80.42 0 0 0 3.12 10.71c1.17 3.45 2.52 6.83 4 10.16.27.59 1.31.16 1.05-.45z"/><path d="m786.93 483.6a3.39 3.39 0 0 0 -.42-.33l-.35-.16a7.82 7.82 0 0 0 -.91-.36 6.8 6.8 0 0 0 -1.79-.32.76.76 0 0 0 -.76.76.77.77 0 0 0 .76.76h.39.22.26c.08 0 .07 0 0 0h.17l.4.08a6.21 6.21 0 0 1 .74.2l.36.14a2.48 2.48 0 0 0 .39.1.6.6 0 0 0 .66-.27.59.59 0 0 0 -.09-.71z"/><path d="m219.71 464.3c4.47 5.5 3 14.66 8.21 19.45a5.1 5.1 0 0 1 1.31 1.47c.56 1.23-.17 2.41-1.24 3.32-2 1.75-1.28 5.14-1.13 7.54s.5 5.07.5 7.6a9 9 0 0 1 -1.85 6 7.32 7.32 0 0 1 -4.38 2.2c-2.46.4-4.95-.13-7.41.19a3.24 3.24 0 0 0 -2.28.94 3.4 3.4 0 0 0 -.5 1.64q-.63 4.88-1.12 9.78a4.37 4.37 0 0 1 -.72 2.4 3.77 3.77 0 0 1 -2.87 1 29.6 29.6 0 0 1 -21.64-8.6 3.19 3.19 0 0 1 -1.12-1.84 3.53 3.53 0 0 1 .7-2.07 43 43 0 0 0 5.22-19.32c.43-10.68-6.51-23.27-.53-33.27a13.28 13.28 0 0 1 6-5.32 22.25 22.25 0 0 1 13.42-1.17c4 .83 9.27 2.91 10.71 7.29" fill="#fff"/><path d="m219.16 464.63c3.41 4.42 3.2 10.35 5.26 15.35a13.5 13.5 0 0 0 1.66 3c1 1.32 3.35 2.59 1.87 4.35a7.51 7.51 0 0 0 -2 2.85 11 11 0 0 0 -.19 4 80.7 80.7 0 0 1 .65 10.3 7.75 7.75 0 0 1 -1.4 4.41 6.68 6.68 0 0 1 -4.81 2.25c-1.7.14-3.4-.07-5.1 0-1.44.05-3.3.12-4.31 1.31-.83 1-.8 2.53-1 3.75q-.36 2.93-.67 5.86c-.17 1.58.13 4.3-1.78 4.82a14 14 0 0 1 -4.78 0 28 28 0 0 1 -9.6-2.72 27.53 27.53 0 0 1 -7.93-5.63 1.74 1.74 0 0 1 -.33-2.38c.38-.75.82-1.48 1.2-2.24a41.17 41.17 0 0 0 1.93-4.66 42.31 42.31 0 0 0 2-19.52c-.88-6.17-2.88-12.29-2.58-18.58a15.75 15.75 0 0 1 3.8-10 15.47 15.47 0 0 1 10-4.46 23.48 23.48 0 0 1 10.33 1.31c2.85 1 5.88 2.78 7 5.74.3.79 1.56.48 1.29-.35-1.85-5.59-8.37-7.73-13.67-8.32-6.83-.77-14.49 1.3-18.06 7.61-3.39 6-2.45 13-1.25 19.46a100.65 100.65 0 0 1 1.71 10.33 38.68 38.68 0 0 1 -.84 11.2 39.43 39.43 0 0 1 -3.95 10.88c-.75 1.35-1.5 2.7-.62 4.2a14 14 0 0 0 3.59 3.48 30.44 30.44 0 0 0 19.25 6.57c1.39 0 2.92-.17 3.91-1.28s1-3 1.14-4.5c.23-2.2.47-4.4.75-6.6.1-.85 0-2.08.59-2.77s2.16-.7 3.12-.72c3.51 0 7.18.52 10.11-1.88 2.73-2.23 3-6 2.77-9.23-.11-2-.3-4-.46-6a21.54 21.54 0 0 1 -.2-4.39c.24-1.83 1.81-2.46 2.48-4.05a3.28 3.28 0 0 0 -1-3.81 15.31 15.31 0 0 1 -4.23-7.62 66.61 66.61 0 0 0 -2.49-8.53 15.16 15.16 0 0 0 -2.11-3.52c-.45-.56-1.44.19-1 .77z"/><path d="m221.74 480.11a1.06 1.06 0 0 0 -.3-.71.86.86 0 0 0 -.45-.24 1.27 1.27 0 0 0 -.34 0 1.39 1.39 0 0 0 -.52.14 1.73 1.73 0 0 0 -.31.22 1.46 1.46 0 0 0 -.36.55.68.68 0 0 0 -.08.24 1.67 1.67 0 0 0 0 .39 1.52 1.52 0 0 0 .19.72 1.19 1.19 0 0 0 .21.29c.07.07.15.12.22.18h.08a1.13 1.13 0 0 0 .55.15h.06a1.45 1.45 0 0 0 .3-.05 1.53 1.53 0 0 0 .27-.11h.07a1.64 1.64 0 0 0 .42-.41v-.06l.1-.24v-.24a1 1 0 0 0 0-.25 1.15 1.15 0 0 0 -.28-.48.84.84 0 0 0 -1.4.36.09.09 0 0 1 0 0l.09-.21v.05l.14-.18a1 1 0 0 0 -.25.42s0 0 0 .05l.09-.22a.43.43 0 0 1 0 .07l.14-.18-.07.06.18-.14-.09.06.21-.09h-.1.23-.09.23-.08l.21.09a.47.47 0 0 1 -.09-.06l.18.14-.08-.08.14.18a.75.75 0 0 1 -.07-.12l.09.21a.67.67 0 0 1 -.05-.19v.23a.81.81 0 0 1 0-.22v.23a1.1 1.1 0 0 1 .06-.26l-.08.19.1-.17-.13.17a.47.47 0 0 1 .1-.1l-.16.12.1-.06-.19.08h.1-.2.12-.2.33-.19.08l-.17-.07h.07l-.13-.1a.73.73 0 0 0 .28.17.65.65 0 0 0 .41 0 .62.62 0 0 0 .39-.58z"/><path d="m222.53 475.11c0-.7-.75-1-1.3-1.26l.27.11a3.7 3.7 0 0 0 -2.48-.19h.39-.13l.4 2.94c.43-.1.84-.22 1.28-.28l-.41.05c.28 0 .55-.05.83-.06v-3a15 15 0 0 0 -2.11.35c-.29.07-.58.16-.86.25a5.13 5.13 0 0 0 -1.15.43 1.59 1.59 0 0 0 -.7.91 1.56 1.56 0 0 0 .15 1.18 1.59 1.59 0 0 0 .91.7 1.56 1.56 0 0 0 1.18-.15l.24-.15a1.42 1.42 0 0 0 .68-1.19 1.39 1.39 0 0 0 -.68-1.19l-.24-.11-.36 2.79a5.36 5.36 0 0 0 .62-.25l-.37.15a10.25 10.25 0 0 1 2.61-.68l-.4.05.48-.05a1.64 1.64 0 0 0 1.07-.45 1.52 1.52 0 0 0 -1.07-2.59 9.78 9.78 0 0 0 -1.43.16 5 5 0 0 0 -1.07.29 1.47 1.47 0 0 0 -.66.38 1.57 1.57 0 0 0 -.38.66 1.5 1.5 0 0 0 1 1.84 1.56 1.56 0 0 0 1.46-.38l-.29.23a3.52 3.52 0 0 1 .4-.18l-.33.14a10.47 10.47 0 0 0 1.34-.55l-.27.11.26-.06h-.08.15a1.2 1.2 0 0 0 .55-.13.86.86 0 0 0 .42-.7z"/><path d="m199.89 483.09h-.16a1 1 0 0 1 .25.07l-.15-.06a.92.92 0 0 1 .27.16l-.12-.1a1.14 1.14 0 0 1 .24.25l-.1-.13a1.68 1.68 0 0 1 .21.37l-.07-.16a3.23 3.23 0 0 1 .22.75v-.19a.24.24 0 0 1 0 .12v-.18s0 .06 0 .08l.07-.16v.06l.11-.14.14-.11h-.05l.17-.07h.18-.06.19l.17.07.14.11.11.14.07.17a.06.06 0 0 1 0 0v.19.19a.06.06 0 0 1 0 0l-.07.17v-.06l-.11.14-.14.11h.06l-.17.08h.06-.19.12-.19a.94.94 0 0 0 .47 0 .72.72 0 0 0 .48-.49.69.69 0 0 0 -.18-.68 1 1 0 0 0 -1.13-.11.9.9 0 0 0 -.47.8.86.86 0 0 0 .63.81.89.89 0 0 0 .92-.33 1.39 1.39 0 0 0 0-1.42 2.43 2.43 0 0 0 -.59-.89 1.8 1.8 0 0 0 -1.2-.5.59.59 0 0 0 -.58.59.54.54 0 0 0 .17.41.69.69 0 0 0 .41.17z"/><path d="m201.28 478.48c2.31.84 3.79 3.08 4.73 5.34 2.58 6.25 2.16 13.27 2.58 20 .19 3 .65 6.19 2.69 8.39a9.47 9.47 0 0 0 7 2.69c5.44 0 11.55-.38 13.85-5.63 1.51-3.45 1.19-9.29-.06-12.86-1.17-3.31-4.45-7.62-8-8.61-2.21-.62-4.56.11-6.7.93a5 5 0 0 1 -2.06.47c-1.7-.12-2.72-1.88-3.37-3.45-.54-1.27-1-2.56-1.49-3.86a9.12 9.12 0 0 1 -.64-5.38c.27-1 .83-1.84 1.06-2.82a8.53 8.53 0 0 0 0-2.67 2.14 2.14 0 0 0 -.37-1.22c-.58-.7-1.7-.42-2.55-.07-2.65 1.08-5.38 2.23-7.35 4.31a1.71 1.71 0 0 0 -.58 1.14c0 .8 1 1.71.39 2.23l.7.35"/><path d="m201 479c4.74 2 5.78 8.84 6.2 13.33.47 5 0 10.16.93 15.12a9.67 9.67 0 0 0 8.65 8.31 29 29 0 0 0 6.11-.11 17.68 17.68 0 0 0 5.32-1.27c3.6-1.59 5.31-4.87 5.73-8.65a20.4 20.4 0 0 0 -2-11.86c-1.94-3.54-5.41-7.3-9.77-7.16a12.86 12.86 0 0 0 -3.63.72c-1.15.38-2.71 1.36-3.88.62a5.73 5.73 0 0 1 -1.79-2.53 45.48 45.48 0 0 1 -1.72-4.22 7.48 7.48 0 0 1 -.46-4.75c.43-1.36 1.11-2.45 1.15-3.91.05-2-.36-4.39-2.91-3.9a16.19 16.19 0 0 0 -3.48 1.35 20.06 20.06 0 0 0 -3.56 2 6.58 6.58 0 0 0 -2.28 2.32 2 2 0 0 0 -.14 1.15c0 .14.6 1.39.59 1.39a.73.73 0 0 0 .14 1.12l.7.35c.82.41 1.54-.82.72-1.23l-.7-.35.15 1.12a1.5 1.5 0 0 0 .29-1.57c-.12-.38-.38-.68-.35-1.1 0-.62.71-1.11 1.17-1.5a21 21 0 0 1 6.12-3.29c.61-.23 1.41-.63 1.9.12a3.71 3.71 0 0 1 .15 1.57 10 10 0 0 1 -1 3.77c-.77 2.19-.08 4.5.62 6.62 1 3.15 2.51 8.65 6.95 7.37 2.42-.7 4.76-2 7.34-1.12a10.61 10.61 0 0 1 4.51 3.53 17.07 17.07 0 0 1 3.57 10.95c0 3.77-.93 7.57-4.57 9.33-3.06 1.48-7.24 1.68-10.57 1.37a7.82 7.82 0 0 1 -5.82-3.11 12.92 12.92 0 0 1 -1.81-6.25c-.46-5.29-.23-10.62-1.29-15.85-.84-4.12-2.51-9.21-6.8-10.85-.61-.23-1.05.8-.45 1.05z"/><path d="m202.12 478.58a4 4 0 0 0 -5.83 4.61c.42 1.3 1.47 2.28 2.12 3.47a9.19 9.19 0 0 1 .75 5.6 13.23 13.23 0 0 1 -4.44 8.55 7.19 7.19 0 0 1 -3.84 1.66 4.35 4.35 0 0 1 -3.76-1.55 7.28 7.28 0 0 1 -1.05-2.4 127.48 127.48 0 0 0 -5.07-13.76 35.7 35.7 0 0 1 -2.72-7.55c-1.13-6.06 1.54-12.44 6-16.72a8.51 8.51 0 0 1 3.07-2.07c.72-.24 1.49-.33 2.19-.61a16.32 16.32 0 0 0 3.28-2.36 13.57 13.57 0 0 1 5-2.05 32.27 32.27 0 0 1 17.37.92 5.42 5.42 0 0 1 2.81 1.68 4 4 0 0 1 .32 3.74 11.58 11.58 0 0 1 -2.12 3.26c-2.81 3.44-6.4 4.1-10.2 6.4-1.27.77-2.06 4.37-2.52 5.79-.25.76-.19 1.68-.76 2.24"/><path d="m202.44 478c-3.36-2.29-7.74.78-7.12 4.71.37 2.3 2.49 3.76 3 6.05a12.53 12.53 0 0 1 -1 7.21 9.52 9.52 0 0 1 -5 5.21 4.23 4.23 0 0 1 -3.33 0c-1.2-.59-1.58-1.74-1.94-2.94a135.27 135.27 0 0 0 -5.52-14.82 25.87 25.87 0 0 1 -2.4-7.4 16.23 16.23 0 0 1 .72-6.67 19.65 19.65 0 0 1 3.29-6.13 19.86 19.86 0 0 1 2.17-2.32 7.94 7.94 0 0 1 3.66-1.86c2.27-.6 3.63-2.42 5.67-3.43a21 21 0 0 1 7.48-1.78 31.11 31.11 0 0 1 11.51 1.17 7.69 7.69 0 0 1 3.2 1.4c2.18 2.12-1.14 5.73-2.72 7.15-1.82 1.65-4.16 2.55-6.34 3.61a11 11 0 0 0 -2.91 1.71 6.7 6.7 0 0 0 -1.31 2.29 25.11 25.11 0 0 0 -.89 2.83c-.24.91-.28 2.19-.85 2.93-.7.93.87 2.15 1.62 1.25a6.77 6.77 0 0 0 1.08-2.68c.26-.9.55-1.78.84-2.67a5.74 5.74 0 0 1 1.11-2.35 13.16 13.16 0 0 1 3.33-1.78 23.28 23.28 0 0 0 6.06-3.68c1.72-1.6 3.53-3.86 3.82-6.26.68-5.61-7-6.54-11-7a32.81 32.81 0 0 0 -8.4.12 18.25 18.25 0 0 0 -7.62 2.43c-1 .69-1.83 1.65-2.88 2.27s-2.63.74-3.84 1.42a16.67 16.67 0 0 0 -5.06 5 19.35 19.35 0 0 0 -3.63 13.72 30 30 0 0 0 2.59 7.74c1.2 2.72 2.32 5.48 3.33 8.28.51 1.41 1 2.83 1.45 4.26a27.79 27.79 0 0 0 1.25 3.63 5.2 5.2 0 0 0 5.07 2.78c5.53-.39 8.68-6.69 9.18-11.53a10.4 10.4 0 0 0 -.35-4.3 15.78 15.78 0 0 0 -2.05-3.53c-2-3.1 1-6.22 4.29-4.83.7.29 1.05-.79.49-1.16z"/><path d="m172.76 525.24c-4.08-.77-6.49-5.7-5.37-9.7s5-6.83 9-7.7 8.31-.08 12.27 1.17a53.94 53.94 0 0 1 12.93 6.06c4.46 2.87 8.5 6.39 13.2 8.83 9.75 5.07 22.17 5.46 29.85 13.33 4.38 4.5 6.44 10.79 7.42 17 3 18.84-2.73 37.91-3.05 57-.07 3.89.08 7.83-.78 11.62-1.78 7.89-7.95 14.37-15.31 17.72-8.44 3.84-18.08 3.9-27.33 3.24a195.07 195.07 0 0 1 -38.22-6.64c-6-1.67-12.13-3.76-16.52-8.16-4.77-4.78-6.82-11.69-7.36-18.43s.25-13.49.28-20.24c0-8.74-1.2-17.44-1.26-26.18s1.17-17.77 5.69-25.25 15.82-14.38 24.53-13.66"/><path d="m172.92 524.67a6.86 6.86 0 0 1 -5-5.83 8.37 8.37 0 0 1 3-7.42c5.47-4.85 13.43-3.11 19.63-.83a54.81 54.81 0 0 1 9.45 4.56c3 1.84 5.82 4 8.71 6.06a46.72 46.72 0 0 0 8.29 4.79 82.13 82.13 0 0 0 8 2.84c5.53 1.72 11.3 3.26 16.07 6.67 5.26 3.76 8 9.69 9.39 15.85 3.2 14.37.44 29.31-1.26 43.68-.45 3.8-.84 7.62-1.07 11.44-.21 3.61-.13 7.23-.29 10.85a24.23 24.23 0 0 1 -7.36 16.84c-10 9.71-24.83 9.5-37.78 8.37a189.43 189.43 0 0 1 -22.48-3.31c-6.82-1.42-13.89-2.93-20.33-5.63-6-2.52-10.67-6.66-13.11-12.77-2.61-6.54-2.63-13.66-2.36-20.59.15-3.87.38-7.74.33-11.62s-.33-7.74-.61-11.6c-.51-7.28-1.06-14.62-.16-21.9.77-6.25 2.61-12.92 6.63-17.91a31.36 31.36 0 0 1 14.39-9.84 20.13 20.13 0 0 1 7.81-1.12c1.3.1 1.29-1.93 0-2-5.88-.42-11.81 2-16.59 5.29a30.13 30.13 0 0 0 -11.45 14.29c-5.73 14.66-2 30.57-1.93 45.77 0 13.72-3.34 31.06 8.53 41.26 5.22 4.48 12.07 6.38 18.58 8.09a194.24 194.24 0 0 0 23.65 4.67 133.55 133.55 0 0 0 22.94 1.52c7-.27 14.1-1.64 20.13-5.32a28 28 0 0 0 11.76-13.82 31.38 31.38 0 0 0 1.57-10.57c.07-4 .11-7.89.42-11.84 1.26-15.87 5-31.75 2.9-47.72-.86-6.53-2.69-13.2-7.05-18.31-4-4.69-9.8-7.12-15.53-9-6.22-2-12.57-3.54-18.17-7-3.12-1.94-6-4.23-9.05-6.3a56.24 56.24 0 0 0 -9.79-5.33c-6.25-2.63-14-4.86-20.48-1.88-5.06 2.31-8.54 7.89-6 13.32a7.67 7.67 0 0 0 5.34 4.44c.74.15 1.06-1 .32-1.14z"/><path d="m221.68 495.26a3.42 3.42 0 0 0 2.35 1.8.81.81 0 0 0 .57-.07.75.75 0 0 0 .35-.45.76.76 0 0 0 -.08-.57.72.72 0 0 0 -.45-.35 2.53 2.53 0 0 1 -.7-.2l.18.08a3.59 3.59 0 0 1 -.76-.44l.13.11a3 3 0 0 1 -.53-.54l.1.13a.47.47 0 0 1 -.09-.12.7.7 0 0 0 -.37-.29.62.62 0 0 0 -.7.91z" fill="#fff"/><g fill="#18c4ff"><path d="m366.18 706.55a131.08 131.08 0 0 1 11.82-11.26c2.1-1.75 4.25-3.46 6.48-5s5.1-3.27 8.13-2.69c.8.15 1.16-1.06.34-1.24-2.65-.61-5.2.34-7.46 1.7a63.29 63.29 0 0 0 -7 5.22 117.57 117.57 0 0 0 -13.11 12.53c-.48.53.3 1.32.79.79z"/><path d="m367.15 712.39 1.81 2.88a.56.56 0 0 0 .77.21.58.58 0 0 0 .2-.78l-1.83-2.86a.54.54 0 0 0 -.75-.2.56.56 0 0 0 -.2.75z"/><path d="m368.47 704.35a110.81 110.81 0 0 1 6.32 10.15.65.65 0 0 0 1.13-.65 85.73 85.73 0 0 0 -6.42-10.1c-.45-.62-1.48 0-1 .6z"/><path d="m374.25 698.21c1.93 3.74 3.88 7.47 5.81 11.21.41.78 1.59.09 1.19-.69-1.94-3.74-3.94-7.44-6.05-11.08-.35-.61-1.27-.07-.95.56z"/><path d="m380.4 692.8c2 3.48 4.08 7 6.15 10.4a.67.67 0 0 0 1.15-.67c-2.09-3.44-4.21-6.88-6.35-10.29a.55.55 0 0 0 -1 .56z"/><path d="m386.91 687.69q2.25 5.09 4.34 10.23a.68.68 0 0 0 .82.47.67.67 0 0 0 .47-.82c-1.45-3.54-3-7-4.67-10.44-.31-.65-1.25-.08-1 .56z"/><path d="m393.78 689.25a4.2 4.2 0 0 1 .45.8l-.06-.14a4.41 4.41 0 0 1 .23.7.62.62 0 0 0 .76.44.67.67 0 0 0 .37-.29.6.6 0 0 0 .06-.47 5 5 0 0 0 -.94-1.7.58.58 0 0 0 -.39-.17.63.63 0 0 0 -.33.12.56.56 0 0 0 -.15.71z"/></g><path d="m298.57 537.77a41.37 41.37 0 0 1 8.14-23.68 5.23 5.23 0 0 1 2-1.81 1.93 1.93 0 0 1 2.39.58 3 3 0 0 1 .18 1.88 24.06 24.06 0 0 0 .17 6.17c0-1.49 1-2.78 2.17-3.76a18.76 18.76 0 0 1 6.2-3.54 3.91 3.91 0 0 1 3.26 0 2.75 2.75 0 0 1 1 3 5.58 5.58 0 0 1 -1.84 2.73c.87-1.27 3.16-.74 3.7.71a3.24 3.24 0 0 1 -1.84 3.79c1.75-.67 3.58 1.4 3.36 3.26s-1.77 3.29-3.35 4.3a1.49 1.49 0 0 1 2.25 0 2.37 2.37 0 0 1 .21 2.45 6.08 6.08 0 0 1 -1.62 2 39.91 39.91 0 0 1 -9.21 6.28c-2 1-4.34 2-5.4 4" fill="#fff"/><path d="m299.14 537.77a40.93 40.93 0 0 1 4.52-17.37 41.64 41.64 0 0 1 2.14-3.66c.77-1.17 1.67-2.89 2.93-3.59.83-.45 1.7-.23 1.75.81 0 .72-.14 1.48-.17 2.2a26.76 26.76 0 0 0 .29 5c.14 1 1.62.68 1.66-.23.1-2.85 4.11-4.94 6.39-5.93 1.09-.48 3.42-1.57 4.31-.23s-.4 3-1.38 3.9l1.27 1.28a1.33 1.33 0 0 1 2.16.28c.56 1.11-.5 2.31-1.41 2.79a.92.92 0 0 0 .71 1.68c1.49-.43 2.42 1.42 2.09 2.67a6 6 0 0 1 -2.81 3.16l1.18 1.53c.52-.58 1 .11 1 .67a2.21 2.21 0 0 1 -.48 1.22 11.22 11.22 0 0 1 -2.08 2 40.37 40.37 0 0 1 -5.21 3.71c-2.92 1.75-6.81 2.8-8.6 5.93a1 1 0 0 0 1.78 1c1.28-2.24 4-3.07 6.18-4.23a40.58 40.58 0 0 0 6.81-4.58c1.66-1.39 4-3.23 3.53-5.71-.4-2-2.88-3.07-4.32-1.42-.69.79.2 2.18 1.18 1.53 1.95-1.31 4.09-3.33 3.77-5.92-.27-2.16-2.32-4-4.53-3.36l.71 1.68c1.88-1 3.25-3.55 1.9-5.52a3.13 3.13 0 0 0 -4.85-.42.9.9 0 0 0 1.27 1.28c1.44-1.36 2.63-3.22 2-5.27s-2.69-2.56-4.58-2.11a17.19 17.19 0 0 0 -6.23 3.13c-1.74 1.32-3.41 2.92-3.48 5.23l1.66-.22a31.24 31.24 0 0 1 -.13-6.34c.06-1.3-.36-2.56-1.74-3-3.14-.89-5.29 3.51-6.55 5.65a42.32 42.32 0 0 0 -5.8 20.72.57.57 0 0 0 1.13 0z"/><path d="m234.55 530.53a72.37 72.37 0 0 1 24.87 16.83c9.7 10.08 16.31 22.81 26 32.89-2.37-1.35-3.2-4.47-2.83-7.18s1.66-5.17 2.6-7.74c2.44-6.64 2.54-14 5.4-20.48 1-2.25 3.37-4.68 5.52-3.48-.73-2.36 1.57-4.77 4-5.14s4.84.69 7.09 1.71c3.13 1.42 6.73 3.47 7 6.91a2.75 2.75 0 0 0 1.58 2.92c2 1.7 2.35 4.57 2.53 7.17a163.32 163.32 0 0 1 -3.12 44.77c-2 9.39-5.34 19.39-13.39 24.61-4.71 3.06-10.47 4.06-16.09 4.19a38.79 38.79 0 0 1 -13.16-1.75c-5.91-2-11-5.84-15.71-9.93a141.21 141.21 0 0 1 -31.69-39.78"/><path d="m234.24 531.06a73.43 73.43 0 0 1 22.9 15.31c6.78 6.68 12 14.67 17.61 22.32a119.68 119.68 0 0 0 10 12.24l1.17-1.51c-3-1.84-2.71-5.83-1.77-8.73.56-1.74 1.34-3.39 2-5.1a42.79 42.79 0 0 0 1.51-5.31c.8-3.53 1.33-7.12 2.28-10.61a22.77 22.77 0 0 1 1.82-5c.69-1.25 2.26-3.3 3.91-2.5a1 1 0 0 0 1.38-1.06c-.4-1.6.81-3 2.22-3.66 1.79-.78 3.85-.19 5.58.47 2.6 1 5.83 2.33 7.52 4.66.87 1.2.67 2.32 1 3.65s1.77 2 2.56 3.11c1.85 2.65 1.53 6.88 1.65 9.94a153.86 153.86 0 0 1 -4.23 43.77c-1.4 5.52-3.38 11.13-7 15.64-4.09 5.13-10 7.72-16.43 8.45-7 .81-14.37.21-20.75-2.94-5.91-2.93-11-7.4-15.72-11.9a147.47 147.47 0 0 1 -27.45-35.77c-.65-1.17-2.39-.14-1.78 1a136.65 136.65 0 0 0 26.13 34.78c5.16 5 10.7 10.1 17.14 13.43 6.69 3.46 14.34 4.32 21.77 3.59 6.74-.66 13.18-3 17.77-8.19 4.15-4.68 6.5-10.67 8.08-16.65a143 143 0 0 0 3.84-23 163.71 163.71 0 0 0 .43-24.66c-.18-3.08-.21-6.64-2.31-9.13-.46-.54-1.1-.89-1.55-1.42s-.36-1.73-.56-2.56a7.12 7.12 0 0 0 -2-3.34 22.23 22.23 0 0 0 -8.31-4.55c-3-1-6.59-1-8.65 1.84a4.57 4.57 0 0 0 -.8 3.91l1.38-1.06c-3.67-1.75-6.28 2.37-7.4 5.27-1.62 4.2-2.24 8.7-3.19 13.08a45.56 45.56 0 0 1 -1.87 6.6 43.06 43.06 0 0 0 -2.3 6.42c-.7 3.36 0 7.23 3.12 9.15a1 1 0 0 0 1.16-1.51c-6.74-7.06-12-15.32-17.81-23.09a81.43 81.43 0 0 0 -19.69-19.29 74.1 74.1 0 0 0 -13.9-7.26c-.64-.26-1.12.86-.47 1.13z"/><g fill="#18c4ff"><path d="m231.87 591.42c4.9 5.72 9.8 11.46 14.81 17.09.64.72 1.68-.33 1-1.06-4.94-5.67-10-11.26-15.06-16.84-.5-.54-1.27.26-.8.81z"/><path d="m247.9 611.29a.55.55 0 0 0 0-1.09.55.55 0 0 0 0 1.09z"/><path d="m281.85 576.79a11.41 11.41 0 0 1 3.94 7.17.68.68 0 0 0 .83.47.7.7 0 0 0 .47-.82 12.31 12.31 0 0 0 -4.42-7.64.61.61 0 0 0 -.82 0 .6.6 0 0 0 0 .82z"/><path d="m287.73 576.2a5.64 5.64 0 0 1 1.67 1.9 5.44 5.44 0 0 1 .66 2.41.67.67 0 0 0 .65.64.65.65 0 0 0 .64-.64 6.53 6.53 0 0 0 -3.07-5.26.56.56 0 0 0 -.75.2.56.56 0 0 0 .2.75z"/></g><path d="m242.5 533.6a7.67 7.67 0 0 1 6.11-1.41 22.56 22.56 0 0 1 6.08 2.18 7.75 7.75 0 0 1 2.59 1.67 2.63 2.63 0 0 1 .55 2.87c2.13-.18 4.06 1.56 4.8 3.57a13.51 13.51 0 0 1 .25 6.36 176.5 176.5 0 0 1 -4.61 21.06 3.14 3.14 0 0 1 -.55 1.28c-.7.83-2 .73-3 .48-6-1.45-11-5.56-14.72-10.47s-6.17-10.61-8.48-16.3"/><path d="m242.79 534.11c2.43-1.59 5.17-1.51 7.85-.61a32.18 32.18 0 0 1 4 1.73c1.15.56 3.17 1.65 2.49 3.27a.82.82 0 0 0 .7 1.22c2.39-.08 3.93 2 4.31 4.22.43 2.45-.16 5.08-.58 7.5-.86 5-2.07 9.85-3.34 14.72-.3 1.16-.58 2.33-.92 3.48-.4 1.36-1.31 1.3-2.54 1a20.9 20.9 0 0 1 -5.66-2.39 30.46 30.46 0 0 1 -9.3-9c-3.1-4.51-5.24-9.55-7.34-14.59-.49-1.17-2.44-.68-2 .54 3.86 9.76 8.85 20.29 18.57 25.43a17.15 17.15 0 0 0 6.59 2.24 3.42 3.42 0 0 0 2.53-.72c.93-.82 1.1-2.2 1.39-3.33a168.51 168.51 0 0 0 3.92-18c.42-2.88 1-6-.21-8.82a5.93 5.93 0 0 0 -5.47-3.82l.78 1c1.58-3.75-3.71-5.65-6.25-6.66-3.27-1.3-7.48-1.94-10.28.72-.47.45.15 1.28.71.92z"/><path d="m279.28 507.09a3.47 3.47 0 0 0 -3.67 2.22 1.78 1.78 0 0 0 .12 1.61 2.05 2.05 0 0 0 .94.61 3.84 3.84 0 0 0 3.6-.2 3.29 3.29 0 0 0 .84-1 3 3 0 0 0 .46-1.7 1.79 1.79 0 0 0 -.9-1.45"/><path d="m279.43 506.54a3.78 3.78 0 0 0 -3.48.84 3.43 3.43 0 0 0 -1.2 3.46c.47 1.41 2.32 1.88 3.65 1.89a3.8 3.8 0 0 0 3.43-2 3.7 3.7 0 0 0 .51-2.51 2.27 2.27 0 0 0 -1.46-1.81.78.78 0 0 0 -.75 1.29l.11.12.13.1.17.16s.09.15.11.21c0-.1 0 0 0 0l.06.2s0 .1 0 .14a1.32 1.32 0 0 1 0 .3 2.26 2.26 0 0 1 -.24.69 2.44 2.44 0 0 1 -.79 1 2.28 2.28 0 0 1 -1.07.32h-.56a4.77 4.77 0 0 1 -.73-.16l-.54-.18a2.69 2.69 0 0 1 -.29-.16h-.05l-.06-.07s0 0 0 0a.49.49 0 0 1 -.05-.16s0-.16 0 0a1.09 1.09 0 0 1 0-.18s0-.09 0-.13 0 .1 0 0 .07-.26.11-.38.05-.13 0-.06v-.08l.15-.25a1.39 1.39 0 0 1 .33-.41l.27-.26.1-.08c.19-.17-.06 0 .06-.05a3.76 3.76 0 0 1 .61-.36c-.07 0 .05 0 .05 0l.2-.06a2.11 2.11 0 0 1 .36-.09 3.52 3.52 0 0 1 .64-.09.57.57 0 0 0 .15-1.11z"/><path d="m298.28 515.08a3.48 3.48 0 0 0 -3.67 2.23 1.78 1.78 0 0 0 .12 1.61 2.11 2.11 0 0 0 .95.61 3.82 3.82 0 0 0 3.59-.21 3.17 3.17 0 0 0 .84-1 3 3 0 0 0 .46-1.69 1.79 1.79 0 0 0 -.9-1.46"/><path d="m298.43 514.54a3.81 3.81 0 0 0 -3.48.83 3.46 3.46 0 0 0 -1.2 3.47c.47 1.41 2.32 1.88 3.65 1.89a3.81 3.81 0 0 0 3.43-2 3.7 3.7 0 0 0 .51-2.51 2.27 2.27 0 0 0 -1.46-1.81.78.78 0 0 0 -.75 1.29l.11.12s.25.2.14.1l.16.16.12.2c-.05-.09 0 0 0 0l.06.21s0 .1 0 .15a1.37 1.37 0 0 1 0 .3 2.36 2.36 0 0 1 -.24.69 2.42 2.42 0 0 1 -.79 1 2.16 2.16 0 0 1 -1.07.31h-.32s-.36 0-.24 0a4.41 4.41 0 0 1 -.72-.16 4.19 4.19 0 0 1 -.55-.19 1.18 1.18 0 0 1 -.29-.16s.1.1-.05 0l-.06-.06s0 0 0 0a.55.55 0 0 1 -.05-.17s0-.16 0 0a1.09 1.09 0 0 1 0-.18s0-.09 0-.13 0 .1 0 0 .07-.25.11-.38v-.05-.09l.14-.25a2 2 0 0 1 .33-.41l.27-.25.1-.08c.19-.17-.05 0 .06-.06a4.59 4.59 0 0 1 .61-.35h.05l.2-.07.36-.09a4.66 4.66 0 0 1 .64-.08.57.57 0 0 0 .15-1.11z"/><path d="m280.35 516c-.39.53-.78 1.06-1.15 1.61l-1.1 1.64a.91.91 0 0 0 1.57.91l.94-1.73c.31-.58.6-1.17.88-1.77a.67.67 0 0 0 -.23-.9.69.69 0 0 0 -.91.24z"/><path d="m277.63 518.09c.75.09 1.49.24 2.22.37.38.07.76.15 1.13.24l.54.14.26.07.18.05c.17 0 .13 0-.13-.11l-.22-.39c0-.15 0-.19 0-.11l.24-.59a.84.84 0 0 0 0 1.13 1 1 0 0 0 .65.27.84.84 0 0 0 .74-.43 1 1 0 0 0 -.16-1.2 1.7 1.7 0 0 0 -.87-.37c-.52-.11-1.06-.19-1.59-.26a11.82 11.82 0 0 0 -1.46-.13c-.49 0-1 0-1.48 0a.62.62 0 0 0 -.62.62.65.65 0 0 0 .62.63z"/><path d="m781.54 505.75a1.16 1.16 0 0 0 .71.12 1.43 1.43 0 0 0 .59-.23 5.08 5.08 0 0 0 .77-.7c.21-.22.42-.46.61-.7a5 5 0 0 0 .62-.91.81.81 0 0 0 .08-.59.78.78 0 0 0 -.35-.45.73.73 0 0 0 -.58-.07.81.81 0 0 0 -.45.34c-.15.22-.28.45-.42.67s-.3.43-.46.64l.11-.14c-.18.23-.37.46-.57.68l-.14.13c-.09.07 0 0 0 0s-.08.05-.1.06l-.08.05c-.12.06.05 0 .05 0h-.05s0 0 .08 0a.64.64 0 0 0 -.73.36.61.61 0 0 0 .26.77z"/><path d="m805.23 494.24a9.09 9.09 0 0 0 .63-5.61 4.29 4.29 0 0 0 -4.15-3.3c-2.33.21-3.7 2.72-4.22 5 .64-3.48-1.65-6.72-3.24-9.88a27.29 27.29 0 0 1 -2.76-14.65 20.83 20.83 0 0 0 -8.49 10.64 10.68 10.68 0 0 1 -1.9 4c-.21-5.92.24-12.45 4.34-16.73 3.87-4 10.22-5 15.62-3.48.85.23 1.68.51 2.54.66a18.85 18.85 0 0 0 2.6.2c1.88 0 3.75.09 5.62.2a20.63 20.63 0 0 1 5.69 1 16.31 16.31 0 0 1 8.2 7.27c4.25 7.12 7.15 16 4.28 24.21a32.06 32.06 0 0 1 -14.84 17.16 3 3 0 0 1 -1.14.41c-1.13.09-1.94-1-2.52-2l-5.88-9.82c-.84-1.4-1.64-3.3-.55-4.51"/><path d="m805.8 494.4c1.31-3.28 1.6-8.19-2.5-9.62-3.55-1.23-5.87 2.39-6.59 5.33l1.56.43c.64-4.18-1.91-7.53-3.59-11.13a27 27 0 0 1 -2.31-13.62.88.88 0 0 0 -1.32-.76 22.33 22.33 0 0 0 -6.49 6.32 21.85 21.85 0 0 0 -2.07 3.95c-.62 1.53-.91 3.28-2 4.55l1.52.63c-.24-7.37.78-16.28 8.82-19.1a18 18 0 0 1 11.06.06c4.27 1.21 8.87.43 13.21 1.33 4.12.85 7.19 3.59 9.35 7.11a38.36 38.36 0 0 1 4.8 11.32 22.17 22.17 0 0 1 -.49 12.63 29.84 29.84 0 0 1 -6 9.8 31 31 0 0 1 -4.83 4.33q-1.25.9-2.58 1.68c-.45.26-1.12.78-1.67.59s-.88-.84-1.13-1.24c-1.46-2.28-2.81-4.64-4.2-7-.66-1.1-1.35-2.18-2-3.29s-1.14-2.22-.42-3.23-.81-2-1.48-1.14c-1.33 1.62-.84 3.51.08 5.22 1.33 2.49 2.89 4.88 4.34 7.31 1 1.7 2 4.45 4 5.28s4.13-1 5.65-2c7.33-4.94 13.31-13.17 13.82-22.21a30.87 30.87 0 0 0 -3-14.17c-1.84-4.15-4.22-8.18-8-10.81-4.15-2.88-9.32-2.74-14.16-2.78a18.54 18.54 0 0 1 -3.94-.29c-1.18-.28-2.31-.68-3.51-.89a19.35 19.35 0 0 0 -6.17-.14 14.4 14.4 0 0 0 -10.92 7.26c-2.35 4.34-2.55 9.5-2.39 14.33a.9.9 0 0 0 1.52.63 10.57 10.57 0 0 0 1.89-3.72 21.89 21.89 0 0 1 1.85-4.17 20.25 20.25 0 0 1 6.47-6.68l-1.33-.75a28 28 0 0 0 1.83 12.64c1.46 3.67 4.9 7.51 4.27 11.68-.15 1 1.31 1.46 1.56.43.49-2 2-5.21 4.62-4.29 3.25 1.14 2.64 5.34 1.76 7.83-.25.73.87 1 1.15.32z"/><path d="m828.73 477.36a27.53 27.53 0 0 1 1.08-20.25 22.65 22.65 0 0 1 15.71-12.43c3.53-.67 7.16-.4 10.74-.6 6.5-.36 12.88-2.26 19.4-2.17a5.75 5.75 0 0 1 2.84.57c1.55.91 2 2.89 2.33 4.66.59 3.19 1.17 6.49.48 9.66s-2.95 6.24-6.14 6.83c-2.57.48-5.14-.69-7.5-1.82 3 2.07 7.78.44 10.08 3.21a6.36 6.36 0 0 1 1.2 3.51c.3 3-.15 6.26-2.12 8.56s-5.75 3.15-8.1 1.25a6.08 6.08 0 0 1 -.88 11c-2.78 1-5.87-.07-8.53-1.38a56.35 56.35 0 0 1 -11.51-7.5c-3-2.5-5.78-5.37-9.4-6.8s-8.39-.9-10.47 2.38"/><path d="m829.34 477.19c-1.91-6.48-1.77-13.69 1.31-19.8a22.06 22.06 0 0 1 13-11.24c3.34-1 6.83-.93 10.29-1a77.67 77.67 0 0 0 10.65-1.1 61.6 61.6 0 0 1 11.09-1.12c1.7 0 2.93.46 3.59 2.14a22.19 22.19 0 0 1 1 4.63c.55 3.62.71 7.75-1.79 10.73-2.86 3.4-6.76 2.13-10.24.46a1.05 1.05 0 0 0 -1.06 1.82c1.9 1.23 4.14 1.26 6.31 1.53a6.11 6.11 0 0 1 3 1 5 5 0 0 1 1.49 3.71c.21 2.64-.16 5.69-2.07 7.68a5.08 5.08 0 0 1 -6.62.84l-1 1.8a5.09 5.09 0 0 1 -.43 9c-3.83 1.73-8.65-1.39-11.85-3.29a73 73 0 0 1 -10.24-7.69c-2.73-2.35-5.78-4.71-9.45-5.24-3.48-.51-7.15.47-9.18 3.5-.73 1.08 1 2.1 1.75 1 2.13-3.15 6.71-3.12 9.85-1.67 4 1.82 7 5.24 10.36 7.87a51 51 0 0 0 11.59 6.92c3.67 1.49 8.08 1.74 10.73-1.71a7.17 7.17 0 0 0 -2.09-10.5c-1.17-.71-2.08 1-1 1.8 2.41 1.81 5.81 1.39 8.16-.33 2.62-1.92 3.64-5.27 3.71-8.4.06-3-.5-6.3-3.5-7.62-2.66-1.17-5.89-.36-8.38-2l-1.06 1.82c3.29 1.57 7 3 10.48 1.12a10.49 10.49 0 0 0 4.89-7.81 21.57 21.57 0 0 0 -.13-5.95 29.06 29.06 0 0 0 -1.07-5.39 5.37 5.37 0 0 0 -2.66-3.28c-1.75-.82-4-.57-5.85-.45-4.29.28-8.49 1.2-12.75 1.75s-8.46.24-12.68.72a23.3 23.3 0 0 0 -16.56 10.18c-4.72 6.94-5.35 16.09-2.68 23.92a.63.63 0 0 0 1.21-.34z"/><path d="m826.42 469.1a4.36 4.36 0 0 0 -.16 2.32 8.94 8.94 0 0 0 .73 2.07 6.6 6.6 0 0 0 1 1.61 3 3 0 0 0 1.88 1.11.93.93 0 0 0 .91-.7 1 1 0 0 0 -.43-1.06 1.68 1.68 0 0 0 -.3-.15c.09 0 .06 0 0 0l-.33-.21c-.12-.09.1.09 0 0l-.13-.12a3.57 3.57 0 0 1 -.27-.28s-.23-.27-.14-.15l-.23-.34c-.13-.21-.26-.43-.38-.66a11.66 11.66 0 0 1 -.64-1.5 5.18 5.18 0 0 1 -.4-1.77.56.56 0 0 0 -1.1-.15z" fill="#18c4ff"/><path d="m793.59 520c.75 2.28 1.61 4.53 2.42 6.79s1.59 4.55 2.44 6.81c.31.82 1.59.5 1.34-.37-.68-2.35-1.49-4.68-2.33-7s-1.69-4.55-2.71-6.75c-.3-.65-1.38-.19-1.16.49z"/><path d="m791.24 539.36a24.74 24.74 0 0 0 -2.88-5.18c1.92-3.6 5.69-5.8 9.41-7.51a74.73 74.73 0 0 1 22.36-6.25c2.7-.32 6.23 0 7 2.65.53 1.87-.65 4.32.82 5.58a4.46 4.46 0 0 0 3 .6c5.11 0 9.78 2.91 13.61 6.29 8.13 7.17 13.78 16.87 17.25 27.14s4.86 21.14 5.43 32c.47 9.13.36 18.44-2.31 27.18a50.87 50.87 0 0 1 -26.56 30.46 56 56 0 0 1 -40.54 2.56c-4.8-1.52-9.7-3.93-12.16-8.31a24 24 0 0 1 -2.1-6c-3.08-12.2-6.18-24.44-7.46-37-.95-9.36-.89-18.83-2.33-28.14-.94-6.12-2.54-12.31-1.55-18.42a22.73 22.73 0 0 1 17.75-18.23" fill="#18c4ff"/><path d="m791.8 539.36c-.09-2-1.54-4-2.65-5.64v.93c2-3.43 5.68-5.39 9.17-7a71.26 71.26 0 0 1 13.3-4.7c2.22-.54 4.47-1 6.73-1.31a14.28 14.28 0 0 1 5.45-.11 2.88 2.88 0 0 1 2.45 3.4c-.08 1.62-.27 3.2 1 4.45a1 1 0 0 0 1.41-1.4c-1-1-.32-3-.44-4.24a4.28 4.28 0 0 0 -1.79-3.16c-2.32-1.64-5.48-1.22-8.11-.86a74.67 74.67 0 0 0 -22.48 6.69c-3.35 1.64-6.48 4-8.24 7.34a.91.91 0 0 0 0 .93 27.48 27.48 0 0 1 1.74 2.65 12.93 12.93 0 0 0 1.52 2.46.58.58 0 0 0 1-.4z"/><path d="m725.67 545.71a41.28 41.28 0 0 0 -8.13-23.71 5.23 5.23 0 0 0 -2-1.81 1.93 1.93 0 0 0 -2.39.58 3 3 0 0 0 -.18 1.88 23.61 23.61 0 0 1 -.18 6.17c0-1.49-1-2.77-2.16-3.75a18.61 18.61 0 0 0 -6.2-3.55 3.87 3.87 0 0 0 -3.26 0 2.71 2.71 0 0 0 -1 3 5.53 5.53 0 0 0 1.84 2.73c-.88-1.27-3.17-.74-3.7.71a3.24 3.24 0 0 0 1.84 3.79c-1.75-.66-3.59 1.4-3.36 3.26s1.77 3.29 3.34 4.3a1.47 1.47 0 0 0 -2.24 0 2.37 2.37 0 0 0 -.22 2.44 6.27 6.27 0 0 0 1.63 2 40 40 0 0 0 9.21 6.27c2 1 4.34 2 5.4 4" fill="#fff"/><path d="m726.24 545.71a42.32 42.32 0 0 0 -5.8-20.72c-1.25-2.12-3.32-6.4-6.41-5.68a2.52 2.52 0 0 0 -1.89 2.79 33.94 33.94 0 0 1 -.12 6.53l1.66.22c-.07-2.27-1.69-3.86-3.39-5.16a17.42 17.42 0 0 0 -6.32-3.2c-1.85-.44-3.81 0-4.52 2s.48 4 1.95 5.42c.86.81 2-.39 1.27-1.27a3.13 3.13 0 0 0 -4.86.41c-1.34 2 0 4.5 1.91 5.52l.71-1.68c-2.21-.66-4.26 1.2-4.53 3.36-.32 2.59 1.82 4.61 3.77 5.92 1 .65 1.87-.74 1.18-1.53-1.44-1.65-3.92-.53-4.32 1.42-.5 2.48 1.87 4.32 3.53 5.71a39.59 39.59 0 0 0 6.81 4.58c2.16 1.16 4.89 2 6.18 4.23a1 1 0 0 0 1.78-1c-1.79-3.13-5.68-4.18-8.6-5.93a39.55 39.55 0 0 1 -5-3.57 14.87 14.87 0 0 1 -2.1-1.94 2.34 2.34 0 0 1 -.63-1.41c0-.56.5-1.25 1-.67l1.18-1.53a6 6 0 0 1 -2.81-3.16c-.33-1.25.6-3.1 2.09-2.67a.92.92 0 0 0 .71-1.68c-.91-.48-2-1.67-1.41-2.79a1.33 1.33 0 0 1 2.16-.28l1.27-1.27c-1-.9-2.18-2.31-1.47-3.72.8-1.6 3.22-.48 4.4 0 2.28 1 6.29 3.08 6.39 5.93 0 .9 1.51 1.21 1.66.23a26.84 26.84 0 0 0 .3-4.74c0-.74-.17-1.5-.17-2.24 0-1.13.77-1.53 1.73-1 1.22.66 2.08 2.29 2.82 3.4a43.39 43.39 0 0 1 2.26 3.84 40.93 40.93 0 0 1 4.52 17.37.57.57 0 0 0 1.13 0z"/><path d="m789.7 538.47a72.37 72.37 0 0 0 -24.87 16.83c-9.7 10.08-16.31 22.81-26 32.89 2.37-1.35 3.2-4.47 2.83-7.17s-1.66-5.18-2.6-7.75c-2.44-6.63-2.54-14-5.4-20.48-1-2.25-3.37-4.68-5.52-3.48.73-2.36-1.57-4.77-4-5.14s-4.84.69-7.09 1.71c-3.14 1.42-6.73 3.47-7 6.91a5 5 0 0 1 -.19 1.5 4.62 4.62 0 0 1 -1.4 1.42c-2 1.7-2.35 4.57-2.52 7.17a162.93 162.93 0 0 0 3.12 44.77c2 9.39 5.34 19.39 13.39 24.61 4.71 3.06 10.47 4.06 16.08 4.19a38.57 38.57 0 0 0 13.17-1.75c5.91-2 11-5.84 15.71-9.93a141.39 141.39 0 0 0 31.71-39.77" fill="#18c4ff"/><path d="m705.34 562.88a150.42 150.42 0 0 0 1.66 38.84c1.69 9.82 3.93 20.86 11.18 28.23a25.33 25.33 0 0 0 14 6.92 43.84 43.84 0 0 0 17.6-.51c5.51-1.38 10.36-4.35 14.79-7.83a123.75 123.75 0 0 0 12.63-11.59c8.9-9.27 17-19.91 22.8-31.43.59-1.18-1.11-2.2-1.78-1a159.12 159.12 0 0 1 -19 27.16 141.19 141.19 0 0 1 -11.55 11.53c-4.11 3.65-8.47 7.14-13.5 9.46-5.39 2.47-11.41 3.06-17.27 2.75-5.34-.28-10.78-1.51-15.12-4.77-8-6-10.55-16.77-12.32-26.05a179.64 179.64 0 0 1 -2.86-41.67c0-.8-1.16-.78-1.23 0z"/><path d="m789.54 537.87a65.84 65.84 0 0 0 -23.29 14.69c-6.83 6.56-12.18 14.39-17.75 22a126.57 126.57 0 0 1 -10.44 12.88 1.08 1.08 0 0 0 1.3 1.69c5.95-3.67 2.74-11.47.58-16.37-.48-1.07-2.23-.3-1.89.8.83 2.66 2.34 5.15 2.57 8 .18 2.15-.42 4.54-2.35 5.73l1.31 1.69c6.51-6.81 11.63-14.73 17.17-22.32s11.89-14.59 19.77-20a93.42 93.42 0 0 1 13.48-7.66c.63-.29.18-1.37-.47-1.13z"/><g fill="#fff"><path d="m336 685.71c-14.74-5-31-4.15-45.67-9.24-24.75-8.58-40.86-32.17-53.09-55.33s-23.08-48.25-43.35-64.84c-29.64-24.26-75-23.85-107.66-3.83s-52.95 56.62-59.13 94.42a170.17 170.17 0 0 0 -.29 51.53 78.05 78.05 0 0 0 77.31 66.83l220.88-.1c41.2 0 56.3-55.12 20.36-75.27a56.53 56.53 0 0 0 -9.36-4.17z"/><path d="m336 685.71c-14.74-5-31-4.15-45.67-9.24-24.75-8.58-40.86-32.17-53.09-55.33s-23.08-48.25-43.35-64.84c-29.64-24.26-75-23.85-107.66-3.83s-52.95 56.62-59.13 94.42a170.17 170.17 0 0 0 -.29 51.53 78.05 78.05 0 0 0 77.31 66.83l220.88-.1c41.2 0 56.3-55.12 20.36-75.27a56.53 56.53 0 0 0 -9.36-4.17z"/><path d="m664 685.71c14.74-5 31-4.15 45.67-9.24 24.75-8.58 40.86-32.17 53.09-55.33s23.08-48.25 43.35-64.84c29.64-24.26 75-23.85 107.66-3.83s53 56.62 59.13 94.42a170.17 170.17 0 0 1 .29 51.53 78.05 78.05 0 0 1 -77.31 66.83l-220.88-.1c-41.2 0-56.3-55.12-20.36-75.27a56.53 56.53 0 0 1 9.36-4.17z"/><path d="m664 685.71c14.74-5 31-4.15 45.67-9.24 24.75-8.58 40.86-32.17 53.09-55.33s23.08-48.25 43.35-64.84c29.64-24.26 75-23.85 107.66-3.83s53 56.62 59.13 94.42a170.17 170.17 0 0 1 .29 51.53 78.05 78.05 0 0 1 -77.31 66.83l-220.88-.1c-41.2 0-56.3-55.12-20.36-75.27a56.53 56.53 0 0 1 9.36-4.17z"/></g><path d="m336 685.71c-14.74-5-31-4.15-45.67-9.24-24.75-8.58-40.86-32.17-53.09-55.33s-23.08-48.25-43.35-64.84c-29.64-24.26-75-23.85-107.66-3.83s-52.95 56.62-59.13 94.42a170.17 170.17 0 0 0 -.29 51.53 78.05 78.05 0 0 0 77.31 66.83l220.88-.1c41.2 0 56.3-55.12 20.36-75.27a56.53 56.53 0 0 0 -9.36-4.17z" fill="#18c4ff"/><path d="m664 685.71c14.74-5 31-4.15 45.67-9.24 24.75-8.58 40.86-32.17 53.09-55.33s23.08-48.25 43.35-64.84c29.64-24.26 75-23.85 107.66-3.83s53 56.62 59.13 94.42a170.17 170.17 0 0 1 .29 51.53 78.05 78.05 0 0 1 -77.31 66.83l-220.88-.1c-41.2 0-56.3-55.12-20.36-75.27a56.53 56.53 0 0 1 9.36-4.17z" fill="#fff"/><path d="m664.21 686.51c11.56-3.85 23.81-4.23 35.68-6.6a68.78 68.78 0 0 0 28.64-12.81c16.29-12.47 27.16-30.6 36.5-48.53 10-19.16 19.2-39.43 34.47-55.09 14.32-14.68 33.51-23 53.88-24.6a100.87 100.87 0 0 1 57.73 13c17.74 10.23 32.11 25.68 42.43 43.25a151.7 151.7 0 0 1 19.67 60.27 170.39 170.39 0 0 1 -.25 38.44 83.49 83.49 0 0 1 -8.05 28.16 77.92 77.92 0 0 1 -38.42 36.15 81 81 0 0 1 -32.37 6.29h-44.29-36.35-39.65-38.44-53.88c-4.53 0-9.14.18-13.62-.59a39.3 39.3 0 0 1 -30-25.17c-4.69-12.59-3.17-27.25 5.26-37.93 5.36-6.8 13-11.34 21.08-14.13 1-.35.57-1.94-.44-1.59-8.27 2.84-16.07 7.42-21.6 14.3a38.64 38.64 0 0 0 -8.09 18.29 43.22 43.22 0 0 0 11.65 36.38c7.91 8 18.64 12 29.82 12h40.53 36.21 40.28 39.41 56.5c4.54 0 9.11.12 13.63-.24a78.94 78.94 0 0 0 64.49-43.59 84.67 84.67 0 0 0 7.88-27.51 165.13 165.13 0 0 0 -6.5-71.24c-6.38-19.55-16.67-38-30.86-52.95-14-14.77-31.72-25.7-51.57-30.55-19.31-4.73-40.24-4-58.8 3.35a81.11 81.11 0 0 0 -25.16 15.83c-8 7.38-14.46 16.19-20.12 25.41-11.4 18.58-19.52 39-31.85 57-5.92 8.66-12.76 16.82-21 23.37a67.88 67.88 0 0 1 -29.78 13.51c-11.7 2.27-23.75 2.71-35.12 6.49-.97.37-.54 1.96.47 1.63z"/><g fill="#fff"><path d="m712.71 554.53c3.93-2 8-4.09 12.55-4.09a.64.64 0 0 0 0-1.28c-4.74 0-9 2.22-13.13 4.38-.65.34-.07 1.33.58 1z"/><path d="m716.62 553.22a98.33 98.33 0 0 0 1.62 26.78 116.39 116.39 0 0 0 7.91 25.64.81.81 0 0 0 .93.38 3.37 3.37 0 0 0 2.3-3.11l-1.53.42c1.48 2.65 3.82 5.86 6.69 7.13s4.51-1.73 5.66-3.86c3.15-5.85 6.57-11.56 10.27-17.08a180 180 0 0 1 25.68-30.52 155.5 155.5 0 0 1 17.79-14.5c.81-.57 0-1.91-.78-1.34-20.79 14.5-37.64 34-50.48 55.81q-1.36 2.33-2.68 4.68a39.55 39.55 0 0 1 -2.52 4.5c-1.55 2.08-3.42.26-4.79-1.08a19.51 19.51 0 0 1 -3.42-4.52.83.83 0 0 0 -1.54.41 1.61 1.61 0 0 1 -1.08 1.52l.93.38a115.49 115.49 0 0 1 -7.77-25.25 144.4 144.4 0 0 1 -2-26.35.61.61 0 0 0 -1.21 0z"/><path d="m800.27 543.72a2.26 2.26 0 0 1 0-.45v.17a2.66 2.66 0 0 1 .18-.67l-.07.16a2.92 2.92 0 0 1 .33-.57l-.1.13a1.34 1.34 0 0 1 .11-.14.65.65 0 0 0 0-.94.65.65 0 0 0 -.47-.2.67.67 0 0 0 -.48.2 3.44 3.44 0 0 0 -.63 1.14 3.09 3.09 0 0 0 -.14 1.17.65.65 0 0 0 .19.45.62.62 0 0 0 .44.18.63.63 0 0 0 .64-.63z"/><path d="m802.54 535.66a95.09 95.09 0 0 1 19.14-4.85l-.89-.51-.08.19c-.54.76.73 1.5 1.26.73a1.47 1.47 0 0 0 .22-1.3.73.73 0 0 0 -.89-.5 95.3 95.3 0 0 0 -19.06 5.18c-.65.25-.37 1.3.3 1.06z"/></g><g fill="#18c4ff"><path d="m568.15 706a35.66 35.66 0 0 0 4.76 16.4 36.59 36.59 0 0 0 5.08 6.86 27.31 27.31 0 0 0 6.74 5.52c.8.42 1.83-.71 1-1.33a56.32 56.32 0 0 1 -6.25-5.18 36.44 36.44 0 0 1 -5-6.56 36 36 0 0 1 -5-15.71c-.07-.85-1.38-.87-1.34 0z"/><path d="m587.12 736.82a2.22 2.22 0 0 0 .68-.13 2.15 2.15 0 0 0 .72-.41 2.44 2.44 0 0 0 .78-1.14.61.61 0 0 0 -.43-.75.62.62 0 0 0 -.75.42 1.59 1.59 0 0 1 -.07.2l.06-.15a1.9 1.9 0 0 1 -.23.39l.1-.12a2.38 2.38 0 0 1 -.36.35l.12-.09a2 2 0 0 1 -.47.27h.14a2.2 2.2 0 0 1 -.44.12.52.52 0 0 0 -.33.25.65.65 0 0 0 -.07.36.55.55 0 0 0 .55.48z"/><path d="m548.47 715.3a4.92 4.92 0 0 0 .5 4.83.72.72 0 0 0 1 .19.71.71 0 0 0 .07-1.05s-.05-.06 0 0l-.07-.11-.14-.21a4.92 4.92 0 0 1 -.24-.45c0 .1 0-.1 0-.13s-.05-.17-.08-.25-.08-.35-.12-.52 0 .09 0 0 0-.08 0-.13a2.09 2.09 0 0 1 0-.25 4.34 4.34 0 0 1 0-.51s0-.13 0-.07 0-.06 0-.08 0-.16 0-.24a4.51 4.51 0 0 1 .17-.52.62.62 0 0 0 -1.13-.48z"/><path d="m553.75 713.66a5.22 5.22 0 0 0 -.47 3.16 5 5 0 0 0 1.35 2.83.74.74 0 0 0 1 0 .75.75 0 0 0 0-1l-.09-.12c-.07-.1-.14-.19-.2-.29a4.15 4.15 0 0 1 -.32-.53l-.07-.14s-.07-.16 0-.08c0-.1-.07-.2-.1-.29a5 5 0 0 1 -.17-.64 4.85 4.85 0 0 1 .17-2.38c.21-.62-.77-1.05-1.06-.45z"/><path d="m559.38 710.88a6.86 6.86 0 0 0 1.49 5.18.66.66 0 0 0 .88.06.67.67 0 0 0 .18-.87 6.22 6.22 0 0 1 -1.38-4.37.59.59 0 1 0 -1.17 0z"/><path d="m665.83 653.63a10.77 10.77 0 0 0 1.08 9.08c.45.73 1.62 0 1.15-.68a10.12 10.12 0 0 1 -1.17-8.1.55.55 0 0 0 -1.06-.3z"/><path d="m670.93 655 .24 5.51a.67.67 0 0 0 .65.65.65.65 0 0 0 .64-.65l-.37-5.51a.6.6 0 0 0 -.58-.59.59.59 0 0 0 -.58.59z"/><path d="m803.08 569.8c-1.51 3.91 2.25 8.27 6.21 8.28 4.46 0 7.56-4.53 7.35-8.68-.06-1.08-1.72-1.1-1.7 0 .07 3.6 4.15 5.39 7.14 3.82 3.88-2 4.1-6.83 3.2-10.59-.27-1.13-2-.64-1.74.48.8 4.1 5.86 5.46 9 3.12 3.83-2.83 3.64-8 1.49-11.77-.43-.77-1.89-.49-1.76.48.29 2.25 3.23 2.85 4.67 1.18 2.45-2.84-1.34-6-1.88-8.73a1 1 0 0 0 -1.2-.68 2.78 2.78 0 0 0 -1.93 1.44 1 1 0 0 0 1.65 1 .86.86 0 0 1 .8-.52l-1.2-.68c.37 1.82 1.69 3.09 2.32 4.79.25.67.54 1.84-.17 2.32-.43.28-1.13.22-1.2-.33l-1.73.73c1.57 2.77 2.07 6.49-.44 8.9-2.15 2.06-6.06 1.52-6.7-1.69l-1.74.48c.66 2.68.84 5.92-1.39 7.94-1.78 1.62-5.44 1.28-5.51-1.65h-1.7c.4 3.23-1.87 6.91-5.32 7.19a5.32 5.32 0 0 1 -5.36-6.47.61.61 0 0 0 -1.18-.32z"/><path d="m851.3 604.42a7.41 7.41 0 0 1 -2.58-12.14 7.23 7.23 0 0 1 11.67 2.56.87.87 0 0 0 1.7-.23 12.09 12.09 0 0 1 4.34-8.56c2.54-2.1 6.68-3 8.52.42 1.63 3 1.44 7.2 1.25 10.51-.13 2.24-.78 6.53-3.81 6.41l.5 1.83c2.32-1.35 4.34 1.88 3.92 3.9-.57 2.71-3.15 4.79-5.35 6.21s-5.14 2.67-7.74 1.64c-2.17-.86-3.86-3.21-3-5.53l-1.87.24c1.07 2-.45 4.2-1.93 5.46-1.64 1.41-3.79 2.1-5.65.69-4.09-3.08-1.84-8.64-.39-12.48.4-1-1.36-1.8-1.81-.76-1.33 3-2.6 6.34-2.07 9.71a7.74 7.74 0 0 0 4.53 6c5 2 11.82-4.67 9.09-9.66a1 1 0 0 0 -1.87.24c-1.25 3.24 1.05 6.64 4 7.9 3.64 1.56 7.74-.25 10.7-2.44 2.74-2 6-5.23 5.29-9-.57-3-4-5.51-6.9-3.82a1 1 0 0 0 .49 1.83c2.81.1 4.47-2.35 5.2-4.78 1-3.38.76-7.41.26-10.86-.4-2.83-1.53-5.92-4.41-7s-6.34.31-8.59 2.33a13.92 13.92 0 0 0 -4.49 9.61l1.7-.23c-2.34-5.81-9.91-7.76-14.45-3.2a8.69 8.69 0 0 0 3.45 14.28c.69.24 1-.82.3-1.08z"/><path d="m883.77 546a10.4 10.4 0 0 0 0 5.67 9.42 9.42 0 0 0 2.43 4.74 3.15 3.15 0 0 0 4.06.22 8 8 0 0 0 2.46-4h-1.62c.39 2.64 1.87 5.85 4.79 6.42 2.3.44 5.48-1 5.29-3.72a.83.83 0 0 0 -1.65 0c-.2 1.67-2.27 2.45-3.71 1.91-2-.75-2.81-3.14-3.1-5-.13-.88-1.39-.72-1.62 0a6.67 6.67 0 0 1 -1.69 3c-1 .92-2.13.28-2.83-.73a10.85 10.85 0 0 1 -1.59-4 19.8 19.8 0 0 1 -.14-4.35.56.56 0 0 0 -1.1-.15z"/><path d="m934.51 595.07c-6.54-.27-13.38 5.22-12.82 12.15.24 2.92 2 5.68 5.07 6.12 2.54.36 5.36-.9 6-3.56a.9.9 0 0 0 -1.73-.47c-1 2.8-2 6-.86 8.88a7.5 7.5 0 0 0 5.05 4.38c5.18 1.46 9.85-2.51 11.21-7.32.25-.88-1-1.7-1.62-.94-1.64 2-.4 4.67 1.79 5.59 2.62 1.09 5.13-1.06 6.25-3.29a11 11 0 0 0 .44-9.11 7.19 7.19 0 0 0 -6.77-4.4l.81 1.4c2.15-3.72 3-9-.94-12-3.09-2.29-8.09-.53-8.15 3.6l1.83-.25-.34-1.55c-.27-1.17-2.07-.67-1.81.5l.35 1.55c.23 1 1.82.78 1.84-.25a3 3 0 0 1 2.46-2.75 3.59 3.59 0 0 1 3.47 1.37c2.2 2.59 1.19 6.15-.33 8.79a1 1 0 0 0 .81 1.41c4.62-.17 6.17 5.08 5.27 8.78-.4 1.62-1.25 3.55-2.89 4.26a2 2 0 0 1 -2.21-.35c-.53-.47-1-1.33-.51-2l-1.62-.94c-1.06 3.82-4.66 7.17-8.85 6a5.52 5.52 0 0 1 -4-3.88c-.61-2.37.31-4.88 1.08-7.11l-1.73-.47c-.46 2.06-2.91 2.77-4.75 2.18-2.45-.79-3.19-3.72-2.94-6 .58-5.41 6-9.22 11.2-9.11.84 0 .83-1.27 0-1.3z"/><path d="m927.78 565.63a6.63 6.63 0 0 0 2.7 6.28.72.72 0 0 0 .72-1.25 5.33 5.33 0 0 1 -2.22-4.87c.06-.68-1.11-.84-1.2-.16z"/><path d="m780.62 638c-1.16-4.49.23-9.8 5-11.51 4.18-1.52 9 1.46 8.59 6.14l1.73-.23c-.9-2.72 1.71-5 4.33-4.78 3 .3 5.07 2.92 6 5.62s1.55 6 0 8.46c-1.4 2.31-4.21 3.32-6.62 4.19a1 1 0 0 0 .52 1.89c2.18-.59 2.84 2.63 2 4-1.15 2-3.62 2.89-5.63 3.64-2.31.85-5.2 1.69-7.55.52-1.7-.85-3.21-3-2.27-4.94h-1.72a3.7 3.7 0 0 1 -5.23 4.93c-1.89-1.23-1.79-3.54-1.7-5.55.11-2.45.27-4.9.33-7.36 0-1.26-1.84-1.23-1.94 0-.14 1.8-.22 3.6-.31 5.4a27.07 27.07 0 0 0 -.06 4.93 5.86 5.86 0 0 0 4.34 5.08c4.94 1.31 8.79-4.13 6.37-8.48a1.05 1.05 0 0 0 -1.8 0c-1.34 2.76 0 5.81 2.47 7.44 3.27 2.18 7.57.9 10.88-.46 2.67-1.1 6.07-2.9 6.35-6.15.23-2.71-2.06-5.77-5-4.93l.52 1.89c3.2-1.2 6.78-2.66 8.19-6s.45-7.9-1.24-11.06-4.95-5.44-8.55-4.79c-3.11.57-5.45 3.87-4.41 7a.89.89 0 0 0 1.73-.24c.45-5.59-5.33-9.49-10.45-7.87-5.66 1.79-8 8.22-6 13.56a.6.6 0 0 0 1.16-.32z"/><path d="m849.27 681c-5.87.49-8.45-7.74-5.55-11.94 2.37-3.41 8.7-3.27 10.11 1a.86.86 0 0 0 1.68-.23c.16-2.67.43-5.64 1.93-7.95a5.31 5.31 0 0 1 7.37-1.54c6.76 3.93 3.21 13.62 1.81 19.42a1 1 0 0 0 1.7 1 1.41 1.41 0 0 1 1.86.13 3.12 3.12 0 0 1 .69 2.78 16.27 16.27 0 0 1 -2 5.7c-2 3.68-5.47 6.68-9.76 7.12-1.64.17-3.92.06-5.1-1.3a1.28 1.28 0 0 1 0-1.93c.75-.69 1.21-.05.85.73-.84 1.8-3.49 2-5.21 1.91a16 16 0 0 1 -6.09-1.8 8.74 8.74 0 0 1 -4.46-4.24c-.67-1.69-.5-4 1-5.2 1.06-.82 0-2.64-1.06-1.83a6.47 6.47 0 0 0 -2.25 7c.72 2.84 3.13 4.89 5.65 6.17a16.46 16.46 0 0 0 9.22 2c2.45-.31 5.62-1.84 5.52-4.76s-3.37-3.07-4.93-1.32c-1.86 2.09-.44 4.79 1.75 5.89 5.75 2.88 12.65-1.2 15.84-6 1.76-2.65 3.58-6.59 3.07-9.85-.43-2.71-3.78-5-6.06-2.67l1.69 1c.92-4.35 2.5-8.7 2-13.21-.39-3.71-2.19-7.26-5.75-8.79a7 7 0 0 0 -8.52 2.08c-2 2.65-2.37 6.24-2.53 9.45l1.68-.22c-1.84-5.42-9.7-6.08-12.92-1.61a9.47 9.47 0 0 0 -.81 8.91c1.2 3 4.11 5.66 7.52 5.31.77-.08.79-1.28 0-1.22z"/><path d="m936.27 648.32c-6.73.85-13.37 5.49-15.83 11.94-1.15 3-1.08 6.57 1.09 9.1a6.64 6.64 0 0 0 7.77 2l-1.3-1.36c-1.47 2.8-3 6-2.54 9.28a6.72 6.72 0 0 0 5.24 5.72c6.65 1.5 11-4.33 14.14-9.24.6-.94-.86-2.12-1.57-1.21-1.71 2.19-.14 5.35 2.51 5.83 3.31.61 6.1-2.49 7.66-5a16 16 0 0 0 2.39-9.61c-.19-2.47-1.19-7-4.55-6.62a1.06 1.06 0 0 0 -1 .74 1.92 1.92 0 0 0 2.46 2.34c1.63-.6 1.67-2.71.74-3.91-1.23-1.6-3.63-2.56-5.42-3.37a26.68 26.68 0 0 0 -6.43-2.13 1 1 0 0 0 -.51 1.83 46.57 46.57 0 0 1 6.11 2.15c.84.38 5.48 2.27 5 3.63l-1 .74c2.14-.24 2.51 3.74 2.57 5.17a14.23 14.23 0 0 1 -1.24 6.34 11.9 11.9 0 0 1 -3.89 5 3.14 3.14 0 0 1 -3.15.53c-.67-.37-1.47-1.49-.88-2.24l-1.57-1.21c-2.5 4-5.82 9-11.19 8.45a4.87 4.87 0 0 1 -4.55-4.42c-.25-2.73 1.07-5.46 2.28-7.81a1 1 0 0 0 -1.31-1.32c-2.29 1.06-5-.5-6.1-2.54-1.43-2.58-.57-5.84.77-8.26 2.79-5 7.94-8.17 13.44-9.35.67-.15.53-1.3-.17-1.22z"/><path d="m906.07 736.7a6 6 0 0 1 -3.21-5.61 9.55 9.55 0 0 1 3.06-6.38c1.6-1.62 4.17-3.38 6.57-2.58 1.68.57 2.88 3.07 1.37 4.4l1.4 1.08c.87-1.75 3.22-5.42 5.31-3a12.17 12.17 0 0 1 2.43 6.39 14.67 14.67 0 0 1 -4.44 12.26l1.74.72c-.31.14-.41.32-.3.56a2.33 2.33 0 0 1 .08.59 8.42 8.42 0 0 1 0 .87 8.66 8.66 0 0 1 -.28 2 9.94 9.94 0 0 1 -1.61 3.34 9.48 9.48 0 0 1 -6.48 3.91l1 .79-.71-3a1.12 1.12 0 0 0 -1.34-.76 33.13 33.13 0 0 1 -9.69.31 31.84 31.84 0 0 1 -4.63-.91c-.73-.2-1.46-.43-2.17-.68-.9-.31-1.83-.51-1.79-1.61a10.54 10.54 0 0 1 6.24-8.52c1.37-.59 2.85-.81 4.2-1.46s.16-2.37-1.05-1.81c-1.57.73-3.32.91-4.87 1.71a12.22 12.22 0 0 0 -3.54 2.77c-1.78 2-3.74 5.55-3.08 8.36.4 1.71 2 2.23 3.52 2.73a32.59 32.59 0 0 0 5.75 1.4 35.29 35.29 0 0 0 11.69-.2l-1.33-.76.72 3a1.07 1.07 0 0 0 1 .79 12 12 0 0 0 9.71-7.52c.72-1.8 1.2-4.26.49-6.14a2 2 0 0 0 -2.08-1.49 1.69 1.69 0 0 0 -1.58 1.78 1 1 0 0 0 1.74.72 17 17 0 0 0 4.49-16c-.57-2.31-1.85-5.87-4.38-6.64-3-.9-5.26 2.31-6.36 4.61a.89.89 0 0 0 1.39 1.08c1.94-1.75 1.27-4.8-.55-6.38-2.46-2.13-6-.9-8.31.86a12 12 0 0 0 -4.88 8.29 7.35 7.35 0 0 0 4.07 7.19c.71.31 1.33-.7.62-1z"/><path d="m966.51 699.87a7.81 7.81 0 0 0 -2.45 9.55.81.81 0 0 0 1.27.16 2.61 2.61 0 0 0 .52-3.22c-.38-.72-1.66-.22-1.34.57a1.32 1.32 0 0 1 -.32 1.51l1.27.17a6.38 6.38 0 0 1 1.77-7.8c.54-.41-.17-1.34-.72-.94z"/><path d="m810.17 751.12a4.63 4.63 0 0 1 -3-4.21 5.74 5.74 0 0 1 2.68-5.08 6.2 6.2 0 0 1 9.49 4l1.56-.66c-3.5-5.3 1.6-12.44 7.25-13.22a5.93 5.93 0 0 1 6.66 4.54c1 3.49-.29 7.09-1.43 10.38a1 1 0 0 0 1.43 1.09 3.4 3.4 0 0 1 4.21.64 5.09 5.09 0 0 1 1.2 5.35 14 14 0 0 1 -3.38 5.53c-1.14 1.21-3.76 2.91-4.94.77a1 1 0 0 0 -1.4-.37 17.39 17.39 0 0 1 -14.09.61c-1.22-.46-1.71 1.46-.54 1.94a19 19 0 0 0 15.66-.78l-1.4-.37c1.35 2.44 4.52 2.43 6.6 1a15 15 0 0 0 5.42-7.8 7 7 0 0 0 -1.86-7.37 5.3 5.3 0 0 0 -6.46-.83l1.43 1.1c1.35-4 2.69-8.32 1-12.41a7.68 7.68 0 0 0 -8.37-4.85c-6.82.95-12.74 9.59-8.48 15.91a.85.85 0 0 0 1.55-.65 7.86 7.86 0 0 0 -12.39-4.57 7.11 7.11 0 0 0 -2.86 6.63 5.67 5.67 0 0 0 4.09 4.93.64.64 0 0 0 .34-1.23z"/><path d="m763.17 699.72c-4.22-3.7-10.49-.88-12.56 3.74-2 4.35-1.82 12 3.25 14.29a.89.89 0 0 0 1-.14 6.78 6.78 0 0 0 1.73-4.46.88.88 0 0 0 -1.31-.76 7.77 7.77 0 0 0 -2.57 8.36 8.53 8.53 0 0 0 7.08 6.12c7.11 1.09 15.53-5.79 12.69-13.38-.42-1.12-2.17-.69-1.83.5a6.09 6.09 0 0 0 6.5 4.22c3.09-.34 5.51-3 6.33-5.84.88-3.11.27-7.81-2.1-10.2a3 3 0 0 0 -3.55-.7 2.41 2.41 0 0 0 -1.14 3.21 1 1 0 0 0 .84.48 6.58 6.58 0 0 0 6.58-4.91 10.21 10.21 0 0 0 -2-8.85 8.89 8.89 0 0 0 -7.53-3.6 7.56 7.56 0 0 0 -6.38 4.15c-.91 2.09.21 5.92 3.08 5.12a1 1 0 0 0 .75-1 3.23 3.23 0 0 0 -1.26-2.8c-.91-.71-2.22.49-1.31 1.31a1.52 1.52 0 0 1 .55 1.49l.74-1c-.84.17-.94-1.48-.82-2a4.43 4.43 0 0 1 2.15-2.51 6.24 6.24 0 0 1 6.6.28 8.68 8.68 0 0 1 3.74 6.58c.17 2.93-1.71 5.94-4.91 5.74l.85.48c-.3-.66 1.08-.52 1.27-.43a2.62 2.62 0 0 1 .95 1.13 10.92 10.92 0 0 1 1.1 3.15 8.33 8.33 0 0 1 -.85 6.07 5.37 5.37 0 0 1 -4.36 2.73 4.11 4.11 0 0 1 -4-2.85l-1.83.5c2.29 6-4.19 11.53-9.89 11.14a6.82 6.82 0 0 1 -6.22-4.57c-.74-2.28-.38-5.11 1.62-6.66l-1.31-.75a5 5 0 0 1 -1.2 3.25l1-.13c-4.12-1.8-4.21-8.07-2.85-11.67 1.57-4.16 6.65-6.81 10.57-3.93.55.4 1.24-.5.73-.95z"/><path d="m714.86 679.9a6.35 6.35 0 0 0 6.85 5.06 6.57 6.57 0 0 0 5.59-6.76l-1.38.57c1.22 1.39 2.87 2.84 4.79 3.06 2.14.25 3.46-1.41 4-3.31 1-3.61-.32-8.21-3.54-10.31-.79-.51-1.64.63-1 1.28 2.07 2.07 3.44 4.61 3.06 7.64-.18 1.38-.76 3.32-2.52 3a7.08 7.08 0 0 1 -3.63-2.51.82.82 0 0 0 -1.38.57 5 5 0 0 1 -4.22 5.28 5.23 5.23 0 0 1 -5.36-3.92.64.64 0 0 0 -1.24.34z"/><path d="m712 761.33a5.44 5.44 0 0 1 2.23-5.08 5.13 5.13 0 0 1 5.74.16c.63.42 1.51-.43 1.06-1.06a7.46 7.46 0 0 1 -.32-7.67 13.72 13.72 0 0 1 6.07-5.58c1.16-.62 2.64-1.51 4-1.43s1.92 1.71 2.2 2.93c.74 3.2 1.37 6.44 2.05 9.65.21 1 1.81.78 1.81-.24a4 4 0 0 1 4.35-4.06 4.12 4.12 0 0 1 2.63 1.45c.67.83.9 1.94 1.61 2.76a3.74 3.74 0 0 0 2.38 1.21c1 .13 2.18-.16 3.16.18a1.79 1.79 0 0 1 1 2.4 1.85 1.85 0 0 1 -2.77.32.9.9 0 0 0 -1.27 1.27c2 2.05 5.81 1.09 6.12-1.92a3.78 3.78 0 0 0 -1.49-3.42c-1.47-1.05-3.11-.36-4.71-.76s-2-2.79-3.15-3.86a6.08 6.08 0 0 0 -4-1.55 5.89 5.89 0 0 0 -5.66 6l1.81-.25-1.41-6.52a23.62 23.62 0 0 0 -1.27-5c-1.61-3.49-5.18-2.27-7.87-.88-3 1.55-5.86 3.77-7.23 6.93a8.9 8.9 0 0 0 .67 8.8l1.07-1.06c-4.62-3-11 .82-9.92 6.42a.59.59 0 0 0 1.16-.16z"/><path d="m697.43 716.74c2.1-4.64-1.13-10.75-6.29-11.36-5.48-.64-10 5.39-8.46 10.52l1.38-.8a14.09 14.09 0 0 0 -8.47-5c-3.59-.48-5.72 1.83-7.46 4.64s-3.78 6.17-3.52 9.7c.19 2.71 1.71 5.56 4.39 6.51 2.39.86 6.43-1.16 4.79-4.08a.93.93 0 0 0 -1.72.47c-.09 5 4.77 9.31 9.73 8.31 4.58-.93 7.48-6.23 6.07-10.61a.92.92 0 0 0 -1.78.49c1.14 4.92 7.14 7.74 11.71 5.66 4.78-2.18 6.28-8.69 3.65-13-.61-1-2.22-.09-1.6.93 2.06 3.4 1 8.56-2.71 10.37a6.82 6.82 0 0 1 -9.27-4.42l-1.78.49a6.65 6.65 0 0 1 -4.47 8.27c-3.9 1-7.78-2.6-7.71-6.46l-1.71.46c.71 1.27-1.8 1.7-2.56 1.45a4.81 4.81 0 0 1 -2.67-2.66c-1.33-2.93-.1-6.1 1.36-8.73s3.14-6.28 6.62-6.09c3.06.17 6 2.28 7.94 4.5a.83.83 0 0 0 1.38-.8c-1.32-4.07 2.21-9 6.62-8.67 4.22.35 7.13 5.51 5.47 9.32-.31.72.74 1.36 1.07.63z"/><path d="m661.13 691.58a1.29 1.29 0 0 0 -1.12 1.63 1.67 1.67 0 0 0 1.86 1.3 6.77 6.77 0 0 0 2.55-.79 5.83 5.83 0 0 0 1.9-1.35 2.77 2.77 0 0 0 .71-2.53.69.69 0 0 0 -.84-.48l-2.22.82a.7.7 0 1 0 .37 1.34l2.21-.83-.85-.48a.58.58 0 0 1 0 .14 1.13 1.13 0 0 1 0 .26c0 .09 0 .09 0 0a.5.5 0 0 1 0 .12l-.06.19c0 .07 0 .07 0 0l-.06.11a1.71 1.71 0 0 1 -.13.23l-.08.11-.16.18a5.75 5.75 0 0 1 -1.77 1.17 7.5 7.5 0 0 1 -1 .39 1.65 1.65 0 0 1 -1.05.09h-.08l-.08-.07s0 0 0 0a.31.31 0 0 1 0-.1c0 .07 0 .06 0 0a.43.43 0 0 1 0-.11s0-.19 0 0c0 0 .06-.24 0-.1a.35.35 0 0 1 .05-.08c-.05.06-.05.06 0 0a.18.18 0 0 1 -.09.06c.06 0 .06 0 0 0a.6.6 0 0 0 .58-.58.58.58 0 0 0 -.58-.57z"/><path d="m657.72 756.64a6.71 6.71 0 0 1 7.46-1.15 6.15 6.15 0 0 1 1.64 1.13c.51.51.83 1.23 1.42 1.63a1.4 1.4 0 0 0 1.93-.17 1.24 1.24 0 0 0 -.26-1.94c-1-.52-1.85 1.05-.86 1.49-.34-.4-.3-.62.11-.69l-.08-.06a3.87 3.87 0 0 0 -.33-.4 8.67 8.67 0 0 0 -.62-.74 7.31 7.31 0 0 0 -1.33-1.08 8.22 8.22 0 0 0 -3.44-1.16 7.61 7.61 0 0 0 -6.51 2.27.62.62 0 0 0 .87.87z"/></g><g fill="#fff"><path d="m108.65 548.11c-4 2.45-2.41 8.38 1.55 9.9 4.13 1.57 8.33-2.77 7.08-6.87a.89.89 0 0 0 -1.72.48c.71 3.82 3.91 7.15 8 6.61a5.41 5.41 0 0 0 4.2-7.9l-1.65 1c1.66 2.18 4.4 4.94 7.34 3.11 2.35-1.45 1.66-4.49 2.93-6.57.77-1.25 1.82-2 1.9-3.58a4.41 4.41 0 0 0 -1.28-3.29 4.14 4.14 0 0 0 -6.38 1.07.86.86 0 0 0 1.48.86c1.13-1.64 3.82-1.49 4.22.66.32 1.73-1.56 2.84-2.12 4.38-.49 1.35-.42 3-1.2 4.23-1.54 2.44-4.21-.49-5.24-1.83-.72-.94-2.27-.13-1.65 1 1.45 2.54-.89 5.2-3.54 5.12-2.92-.09-4.74-2.65-5.31-5.28l-1.72.48c.93 2.71-1.79 5.78-4.62 4.91s-4.4-5.33-1.65-7.32c.65-.47.06-1.54-.64-1.1z"/><path d="m114.64 600.43c-1.64.2-3.78-2.15-4.8-3.3-1.25-1.39-2.27-3.32-1.75-5.23.47-1.71 2.1-2.69 3.6-3.39s4.62-2.07 5.22.24c.26 1 1.6.69 1.71-.23.37-3.27 6-5.81 8.68-4 3.5 2.38 2.08 7.27.92 10.5-.3.82.72 1.47 1.4 1.08 1.83-1 3.61.72 3.91 2.48a7.49 7.49 0 0 1 -1.4 5.29 9.63 9.63 0 0 1 -8.69 4.15l1 1.27.47-.35-1.24-1.24c-.91 2.67-3.83 3.73-6.36 4.27-2.79.58-7.07 1.27-9.15-1.23-.8-1-1-2.69.1-3.55.08-.06.83-.49 1-.25s-.64.56-.84.57a2.4 2.4 0 0 1 -1.83-.94c-2.13-2.51.84-7.31 3.29-8.55a.9.9 0 0 0 -.69-1.63c-2 .65-3.21 2.35-4.15 4.12s-1.62 4.13-.74 6.14a4.74 4.74 0 0 0 4 2.88c1.66.05 3.67-1.41 3-3.26-.6-1.6-2.69-1.65-3.94-.85a4.38 4.38 0 0 0 -1.74 4.41c.88 4.71 6.68 4.9 10.38 4.42 3.91-.5 8.32-1.91 9.71-6 .27-.82-.55-1.35-1.25-1.25a2.21 2.21 0 0 0 -1.87 1.77 1 1 0 0 0 1 1.27 11.59 11.59 0 0 0 11.33-6.92c.95-2.26 1.22-5.17-.3-7.26a4.51 4.51 0 0 0 -5.81-1.4l1.41 1.08c.91-2.58 1.74-5.37 1.13-8.13a6.9 6.9 0 0 0 -3.85-4.93c-4-1.63-10 1.73-10.47 6l1.71-.23c-1.47-5.44-10.35-.92-11.76 2.44-1 2.32 0 4.91 1.48 6.75a19.09 19.09 0 0 0 3.24 2.91c1 .76 1.94 1.4 3.24 1.12.59-.12.47-1.15-.15-1.08z"/><path d="m59.33 582.78a2.42 2.42 0 0 0 1.46 2.9 3.82 3.82 0 0 0 3.8-.9 6.08 6.08 0 0 0 1.46-7.1c-.38-.84-1.73-.24-1.47.62.86 2.92 2.54 6.85 6.3 6.42 3.47-.4 5.24-4.89 5.32-7.9l-1.72.23c1.42 3.47 6.91 3.48 7.83-.4.48-2.06-.57-4.18-1.85-5.73a13.66 13.66 0 0 0 -5.9-4.19c-1-.3-1.45 1-.66 1.57 2.59 1.69 5.9 3.21 6.64 6.56a2.31 2.31 0 0 1 -1.53 3 2.49 2.49 0 0 1 -2.84-1.24.88.88 0 0 0 -1.72.24 7.92 7.92 0 0 1 -1 3.85c-.58 1-1.51 2.22-2.75 2.36-2.76.31-3.89-3.13-4.52-5.16l-1.47.62a4.5 4.5 0 0 1 -.19 4.07 3.81 3.81 0 0 1 -1.6 1.58c-.81.41-2.53.34-2.27-1a.66.66 0 0 0 -1.27-.35z"/><path d="m61.74 642.66c-3.88-1.17-4.74-5.62-3.69-9.08.48-1.59 1.31-3.43 2.82-4.3a2.87 2.87 0 0 1 2.78-.15 1.72 1.72 0 0 1 .58 2.42h1.44c-3-4.46 2.62-9.4 7-9.1 4.07.28 7 5.47 4.19 8.84a.93.93 0 0 0 1.32 1.32 2.85 2.85 0 0 1 3.6 0 3.87 3.87 0 0 1 1.22 4.25c-.94 3.59-4.59 5.34-7.59 6.94l1.34 1.34c.34-.47 1.17-.12 1.46.22.56.64.22 1.65-.15 2.3a6.19 6.19 0 0 1 -3.41 2.54 12.6 12.6 0 0 1 -3.9.64 12.79 12.79 0 0 1 -4.23-.34 2 2 0 0 1 -.94-.55c.06.08-.6-1.24 0-1a4.15 4.15 0 0 1 -.29 1.42 3.41 3.41 0 0 1 -3.29 2.04c-3.28-.11-4.54-3.74-3.14-6.35a1 1 0 0 0 -1.7-1c-2.15 3.64-.3 8.61 4.06 9.3a5.39 5.39 0 0 0 5.08-1.91c.92-1.12 2.12-4 .68-5.15a2.38 2.38 0 0 0 -3.68 1.59c-.34 2.07 1.65 3.44 3.44 3.75 3.94.69 8.92.37 11.94-2.57 1.5-1.45 2.67-4.22 1-6a3 3 0 0 0 -4.64.1c-.61.84.54 1.77 1.34 1.34 4-2.18 9.2-5.21 8.65-10.59-.39-3.78-5.16-6.52-8.2-3.61l1.32 1.32c3.71-4.48.44-11.39-5.17-12a9.36 9.36 0 0 0 -7.82 3.21c-2 2.33-2.78 5.9-.93 8.53a.84.84 0 0 0 1.44 0 3.41 3.41 0 0 0 -2.08-5c-2.58-.7-4.87 1.18-6 3.33-2.37 4.52-1.91 11.57 3.82 13.17a.63.63 0 0 0 .33-1.21z"/><path d="m33.15 634.75a3.06 3.06 0 0 0 3.17-1.47 3.14 3.14 0 0 0 -.48-3.57.71.71 0 0 0 -.72-.19 2.65 2.65 0 0 0 -1.65 1.88.79.79 0 0 0 .53.94.78.78 0 0 0 .94-.54 1.8 1.8 0 0 1 .06-.22v-.11.08a.64.64 0 0 1 .11-.2s.14-.2.07-.12.08-.08.09-.09l.1-.09.11-.08.21-.1-.9-.12.12.13c.12.13-.08-.12 0 0a2.75 2.75 0 0 1 .17.29c.07.13 0-.13 0 0a1 1 0 0 1 .05.16c0 .1 0 .2.07.3s0 0 0-.05a.28.28 0 0 0 0 .09v.33c0 .07 0 .15 0 0 0 .11 0 .22-.07.33l-.06.16c.06-.16 0 0 0 0a2.2 2.2 0 0 1 -.18.28c.06-.08 0 0 0 0l-.11.12-.13.11c-.05 0-.09.07 0 0a1.67 1.67 0 0 1 -.28.18l-.15.07c.13-.07 0 0 0 0l-.32.08s-.19 0 0 0h-.16a1.79 1.79 0 0 1 -.33 0 .64.64 0 0 0 -.18 1.26z"/><path d="m46.59 703.61a11.7 11.7 0 0 1 -5.59-9.44c0-1.53.33-3.82 2.12-4.22 1.95-.43 3.57 1.89 4.48 3.27.52.78 1.87.31 1.57-.66a9.58 9.58 0 0 1 4.61-10.87c2.24-1.21 5.29-1.51 6.22 1.37a12.17 12.17 0 0 1 -.62 8.72 1 1 0 0 0 1.53 1.22 10.63 10.63 0 0 1 4.4-2.56c1-.29 1.82-.45 2.3.7a5.23 5.23 0 0 1 .35 2.22c-.1 3.17-2.4 6-4.67 8l1.46 1.45c1.3-1.49 2.91.34 2.8 1.82-.16 1.94-2 3.28-3.46 4.23a9.07 9.07 0 0 1 -5.21 1.69c-.56 0-1.12-.4-1.62-.43l-.3.17a.81.81 0 0 1 .41 0 1.63 1.63 0 0 1 1 1.44 3.88 3.88 0 0 1 -1.92 3.47 5.36 5.36 0 0 1 -4.91-.14c-3.33-1.57-5.42-4.94-6.37-8.39a1 1 0 0 0 -2 .55c1 4.51 4.38 9.05 9 10.33a6.7 6.7 0 0 0 6-.93 6 6 0 0 0 2.36-5 3.5 3.5 0 0 0 -3.3-3.46 2 2 0 0 0 -1.64 3.22c1.44 1.76 4.52 1.49 6.43.87a13.93 13.93 0 0 0 6.23-4.06c1.48-1.79 2.15-4.63.54-6.58a3.62 3.62 0 0 0 -5.41-.23 1 1 0 0 0 1.46 1.45c3.13-2.78 6.09-7.06 5-11.46-.5-2.09-1.79-3.42-4-3a12.14 12.14 0 0 0 -6.2 3.34l1.52 1.17a14.11 14.11 0 0 0 .49-10.88c-1.24-3.14-4.48-3.66-7.4-2.57a11.26 11.26 0 0 0 -6.72 13.57l1.57-.66c-1.23-1.8-3-4.05-5.4-4.09s-3.74 2-4.12 4c-.87 4.88 2.26 10 6.37 12.41a.64.64 0 0 0 .64-1.11z"/><path d="m119.76 680.65c-2.81 1-5.46-.82-6.62-3.35a12.13 12.13 0 0 1 -.64-7.68c.56-2.26 1.91-4.48 4.19-5.3 2-.74 4.66-.38 5.93 1.53.47.7 1.75.5 1.7-.46-.15-3.2 1.82-6.62 5.33-6.66 4.18 0 5.13 4.23 4.4 7.58-.39 1.79-1.29 3.57-1.48 5.39-.16 1.48 1 1.94 2.24 1.82a3 3 0 0 1 3.12 2.21 4.7 4.7 0 0 1 -.81 4.34 14.46 14.46 0 0 1 -4.56 4 3.49 3.49 0 0 1 -3.11.56c-.73-.31-1.26-1.36-.38-1.86l-1.3-.16c1.44 1.17 1.27 3.11.48 4.64a6.88 6.88 0 0 1 -4.74 3.33 6.07 6.07 0 0 1 -7.38-6.67c.15-1.22-1.95-1.52-2.16-.3-1 5.91 4.74 10.38 10.31 9a8.87 8.87 0 0 0 6.12-4.9c1-2.23.9-5-1.11-6.68a1.1 1.1 0 0 0 -1.3-.16 3.1 3.1 0 0 0 -.8 4.65c1.48 1.77 4 1.58 5.87.64 3.67-1.83 8.17-6 7-10.56a5.62 5.62 0 0 0 -3.5-4 4.09 4.09 0 0 0 -1.3-.19 2 2 0 0 0 -.73.07h-.14c-.29 0-.23.13.19.39a36.91 36.91 0 0 0 1.24-4.4c1-4.17.27-9.61-4.74-10.56s-8.86 3.65-8.59 8.44l1.7-.46a6.74 6.74 0 0 0 -7.37-2.5 8.63 8.63 0 0 0 -5.88 6.38 13.34 13.34 0 0 0 1 9.84c1.62 2.76 5 4.59 8.12 3.33.81-.33.48-1.64-.36-1.33z"/><path d="m167.39 622a2.68 2.68 0 0 0 -2.31-2.09 4.32 4.32 0 0 0 -3.5 1.45 17.33 17.33 0 0 0 -4.87 8.92c-.55 2.85 0 6.23 2.85 7.7a4.18 4.18 0 0 0 6.06-2.66c.16-.81-.84-1.59-1.49-.87a6.16 6.16 0 0 0 -1 6.61 6.55 6.55 0 0 0 6.08 4c6.37.12 9.72-6.35 9-12l-1.8.48c3.77 5.28 10.88-1.5 11.56-5.88.46-3-2.11-5.09-4.24-6.69s-4.95-2.32-7-.35a1 1 0 0 0 -.16 1.2 2.39 2.39 0 0 0 3.1.94 6.28 6.28 0 0 0 2.62-3.18c1.24-2.62 1.28-5.92-1.36-7.69a6.73 6.73 0 0 0 -7.09 0c-2.64 1.63-4 4.65-4.6 7.58-.26 1.27 1.67 1.82 2 .54.72-3.29 2.7-7.5 6.73-7.06a3.32 3.32 0 0 1 3.23 3.05 5.89 5.89 0 0 1 -.77 3c-.17.35-1.53 2.84-2.09 1.88l-.16 1.2c1.58-1.49 3.75-.08 5.08 1s3.24 2.52 2.84 4.5a9.65 9.65 0 0 1 -3.12 4.64c-1.21 1.11-3.6 2.1-4.82.4-.48-.67-1.93-.57-1.79.49.56 4.27-1.21 9.29-6 10a5 5 0 0 1 -5.14-2.11 4.47 4.47 0 0 1 .21-5.26l-1.5-.87c-.39 2.21-3 2.36-4.4 1-1.6-1.55-1.55-4-1.06-6a16.9 16.9 0 0 1 2.7-5.76 9.27 9.27 0 0 1 2.16-2.34c.94-.65 2.6-.89 3 .53.19.72 1.24.41 1.11-.3z"/><path d="m174.12 569.21c-5.08-1.56-10.88 2.45-10.09 8a7.35 7.35 0 0 0 4.09 5.71c1.93.86 5 .33 5.08-2.21 0-1.13-1.65-1.1-1.74 0a8.23 8.23 0 0 0 2.53 7 6.16 6.16 0 0 0 6.4 1.14c5.45-2.32 5-9.05 3.2-13.62a1 1 0 0 0 -1.16-.65c-2 .56-1.75 3.12-.41 4.24 1.57 1.31 3.87.95 5.44-.16a6.18 6.18 0 0 0 2.25-6.13 13 13 0 0 0 -3.53-7.24c-1.6-1.47-4.31-2.2-6.12-.64-1.47 1.26-1.76 3.92 0 5.11s4.14-.09 4.89-1.92c1-2.35-.78-4.64-2.65-5.9-2.4-1.61-5.64-2.41-8.36-1.17a7.39 7.39 0 0 0 -4.27 6.27c-.09 1.3 1.92 1.29 2 0a5.34 5.34 0 0 1 2.67-4.18 6 6 0 0 1 5.52.09c1.38.61 3.73 2.07 3.28 3.91-.15.6-.82 1.42-1.52 1.39-1 0-.92-1.26-.51-1.84 1.25-1.76 3.71.06 4.55 1.23a11.94 11.94 0 0 1 2.21 5.55 4 4 0 0 1 -1.87 4.15 2.9 2.9 0 0 1 -2.05.38c-.29-.07-1.68-1.14-1-1.33l-1.15-.66c1.42 3.55 2.38 8.64-1.46 11.09a4.3 4.3 0 0 1 -5.2-.5 6.55 6.55 0 0 1 -1.92-5.63h-1.74c0 .94-1.44 1-2.11.85a4.36 4.36 0 0 1 -2-1.18 6.06 6.06 0 0 1 -1.75-4.69c.26-4 4.61-6.16 8.21-5.33a.59.59 0 0 0 .31-1.13z"/><path d="m168.38 546 2.86-.41a.62.62 0 0 0 .39-.3.66.66 0 0 0 .07-.5.69.69 0 0 0 -.3-.39.81.81 0 0 0 -.51-.06l-2.86.41a.65.65 0 0 0 -.39.3.67.67 0 0 0 -.06.5.65.65 0 0 0 .3.39.72.72 0 0 0 .5.06z"/><path d="m229.41 638.21c-2.66-2.79-6.94-1.25-8.87 1.57s-3.27 8.26-.45 10.87a.91.91 0 0 0 1.53-.63c0-1.22-1.1-1.73-2.18-1.54a4.29 4.29 0 0 0 -2.75 2.42 6.8 6.8 0 0 0 1.2 8.16c2.52 2.37 5.82 2.28 8.78.82 2.5-1.23 6.09-3.86 4-7a1 1 0 0 0 -1.71 0 4 4 0 0 0 1.53 5 5.81 5.81 0 0 0 5.8.32 6.18 6.18 0 0 0 1.25-10.24 1 1 0 0 0 -1.58 1.22c1.23 2.3 4.37 1.83 5.66-.14 1.66-2.56.7-5.94-.69-8.39s-3.39-5-6.15-6a5.16 5.16 0 0 0 -6.3 2.29.93.93 0 0 0 1.61.93 3.5 3.5 0 0 1 4.14-1.24 8.92 8.92 0 0 1 4 3.58 10.08 10.08 0 0 1 2.21 5.51 3.39 3.39 0 0 1 -.86 2.58 1.18 1.18 0 0 1 -1.89-.16l-1.58 1.22a4.2 4.2 0 0 1 0 6.58 4.35 4.35 0 0 1 -3.4.79c-1.15-.26-2.72-1.55-2.09-2.88h-1.62c1.27 1.93-1.56 3.43-2.92 4.14-1.83 1-3.8 1.48-5.72.46a4.76 4.76 0 0 1 -2.61-4.25 5.07 5.07 0 0 1 .66-2.52 3.87 3.87 0 0 1 .79-1 1 1 0 0 1 .51-.34c.29 0 .34 0 .14-.27l1.54-.64c-2.08-1.87-.91-6 .2-8.15 1.25-2.38 4.58-4.35 6.89-2.07a.68.68 0 0 0 1-.95z"/><path d="m178.86 701.7c-4.27.38-3.55-5.48-2.41-7.91.52-1.11 1.46-2.49 2.87-2.26s2.22 1.82 2.84 3a.91.91 0 0 0 1.68-.45 4.27 4.27 0 0 1 3-4.2 4.76 4.76 0 0 1 4.84 1.33c3.14 3.07 2.08 7.82-.43 10.92a1 1 0 0 0 1 1.71c2.06-.59 2.68 2 2.46 3.47a8.86 8.86 0 0 1 -2 4.33 9.56 9.56 0 0 1 -3.63 2.66 5.89 5.89 0 0 1 -2.4.52c-.83 0-2-.69-1.29-1.62s-.88-2.2-1.68-1.29c-2.14 2.4-6.27 3.34-8.83 1a5.42 5.42 0 0 1 .12-7.91c.83-.75-.29-2.25-1.22-1.57-3.43 2.48-3.48 7.94-.53 10.85 3.31 3.26 9 2.43 12-.89l-1.68-1.3c-1.67 2.3.8 4.78 3.14 4.82 2.71.06 5.49-1.61 7.27-3.55a10.23 10.23 0 0 0 2.89-7.54c-.25-2.52-2.45-4.74-5.1-4l1 1.71c3.36-4.2 4.42-10.76-.38-14.4a6.48 6.48 0 0 0 -6.68-.84 6 6 0 0 0 -3.71 5.71l1.68-.45c-1-1.7-2.3-3.66-4.44-3.78s-3.54 1.57-4.32 3.31a9.67 9.67 0 0 0 -.66 6.84 4.33 4.33 0 0 0 4.73 3c.7-.11.54-1.31-.17-1.25z"/><path d="m108.44 743.45c-1.18 1-2.85-.12-3.13-1.41a5.31 5.31 0 0 1 1.31-4.12c1.6-2 4.69-3.19 6.73-1.06a.91.91 0 0 0 1.54-.64c.41-3.49 3.46-7.63 7.32-5.38 4.25 2.48 3.54 8 2.77 12.1-.18.91 1 1.88 1.73 1 1.13-1.37 3.38-.79 4.17.68 1.26 2.32-.62 5-2.4 6.45a25.77 25.77 0 0 1 -6.59 3.61 3.77 3.77 0 0 1 -3.2 0c-.85-.5-1.15-2 .07-2.17l-1.24-.5c.79 1.78-1.63 2.86-2.93 3.18a10.81 10.81 0 0 1 -5 .22 4 4 0 0 1 -3.16-2.47 2.72 2.72 0 0 1 .75-3.24c1.1-.73.1-2.5-1-1.79a4.64 4.64 0 0 0 -1.9 5.17 6.1 6.1 0 0 0 4.79 4.42c3.85.89 12.94-.75 10.35-6.6a1.11 1.11 0 0 0 -1.24-.51 3.18 3.18 0 0 0 -2.43 3.37 3.8 3.8 0 0 0 2.88 3.25 7.38 7.38 0 0 0 5.23-.86 34.3 34.3 0 0 0 5.66-3.2c2.77-2.08 5.18-6.13 3.13-9.54-1.48-2.46-5.45-3.34-7.4-1l1.74 1c1-5.24 1.34-12.39-4.64-14.81-5.14-2.08-8.85 3-9.26 7.54l1.55-.64c-3.4-3.39-8.51-.92-10.28 2.89-.85 1.82-1.08 4.27.53 5.76a3.26 3.26 0 0 0 4.47.13c.6-.58-.3-1.45-.91-.91z"/><path d="m74.21 750.33h.41a.59.59 0 0 0 .23-.05.46.46 0 0 0 .2-.13.44.44 0 0 0 .13-.2.39.39 0 0 0 0-.24v-.16a.61.61 0 0 0 -.16-.28l-.12-.09a.59.59 0 0 0 -.31-.09h-.41a.48.48 0 0 0 -.24.06.56.56 0 0 0 -.34.33.6.6 0 0 0 0 .24v.17a.67.67 0 0 0 .16.27l.13.1a.59.59 0 0 0 .32.09z"/><path d="m195 753.52a4.8 4.8 0 0 1 -5.33-1.47 5.83 5.83 0 0 1 -.27-6.51c1.14-2 3.38-3.4 5.67-2.42 1.95.84 3.39 2.77 4.51 4.5.46.71 1.78.5 1.71-.46a8.38 8.38 0 0 1 1.09-5.12c.94-1.52 2.73-3 4.51-1.83s4.11 6 1.47 7.57l1.51 1.15c.16-.44.42-1.4.95-1.52s.82.8.9 1.32a7.32 7.32 0 0 1 -.38 3.53 12.4 12.4 0 0 1 -3.88 5.38 15.28 15.28 0 0 1 -11.86 3.26c-1.18-.15-1.47 1.89-.28 2.09a16.89 16.89 0 0 0 16.11-6.51c1.87-2.53 3.09-6 2.1-9.09-.42-1.35-1.4-2.38-2.92-2.08s-2.23 1.73-2.72 3.08c-.31.86.78 1.59 1.51 1.16 4.08-2.42 1.71-9.18-1.65-11.14-2.2-1.29-4.69-.33-6.22 1.52a9.52 9.52 0 0 0 -2 7.47l1.67-.71c-1.64-2.23-3.57-4.87-6.46-5.5s-5.64 1.28-6.9 3.84a7.35 7.35 0 0 0 .61 7.83 6.2 6.2 0 0 0 6.94 1.94c.77-.31.45-1.58-.35-1.28z"/><path d="m252.75 706.18c1.17-4.53-2.35-9.51-7.31-8.24a5.08 5.08 0 0 0 -1.06 9.5c1 .45 1.94-1 .9-1.53-7-3.39-11.73 6.63-9.87 12.19a7.26 7.26 0 0 0 6.42 5.12 5.62 5.62 0 0 0 5.67-5.22 1 1 0 0 0 -1.79-.48 5.18 5.18 0 0 0 1.66 6.21 8 8 0 0 0 7.38 1.28 8.25 8.25 0 0 0 5.28-5.07c.68-1.86 1.15-5.53-1.24-6.37a1 1 0 0 0 -1.18.67 3.42 3.42 0 0 0 3.24 4c2.25.12 4.12-1.71 5.11-3.56a10.31 10.31 0 0 0 -1.86-12 1 1 0 0 0 -1.65.44 2.47 2.47 0 0 0 4.44 1.79c1.69-2 .69-5-1.08-6.62-4.8-4.29-12 .08-15.38 4.09-.85 1 .61 2.48 1.46 1.46 2.14-2.57 5.29-5 8.74-5.22a4.92 4.92 0 0 1 4.4 1.78 3.13 3.13 0 0 1 .71 2.16 1.77 1.77 0 0 1 -.35 1c-.15.19-1.12.7-1 .07l-1.66.44a8.29 8.29 0 0 1 2.28 7.55 7 7 0 0 1 -1.8 3.54 3.12 3.12 0 0 1 -2.16 1.1c-.8 0-1.74-.71-1.56-1.59l-1.18.67c.46.17.35 1.81.32 2.16a6.65 6.65 0 0 1 -.61 2.28 6.36 6.36 0 0 1 -8.91 2.76c-1.29-.85-2.46-2.57-1.71-4.13l-1.79-.49a3.7 3.7 0 0 1 -4.32 3.26 5.6 5.6 0 0 1 -4.29-4.38 9.69 9.69 0 0 1 1.25-6.75c1.22-2.07 3.69-3.77 6.11-2.61l.9-1.53c-3.23-1.39-2.39-5.91.87-6.6 3.86-.83 6.27 3.15 5.49 6.56a.58.58 0 0 0 1.11.31z"/><path d="m266.26 668.66a4.1 4.1 0 0 0 1.72 4.55 3.92 3.92 0 0 0 5-.7 4.1 4.1 0 0 0 1.17-2.9c0-1-1.58-1-1.54 0a2.8 2.8 0 0 1 -3 2.76 2.93 2.93 0 0 1 -2.25-3.4.58.58 0 0 0 -1.11-.31z"/><path d="m218.78 596.14c-2 3.49.38 8.61 4.4 9.19a.74.74 0 1 0 .2-1.45c-3.13-.38-5.08-4.46-3.64-7.18a.56.56 0 0 0 -1-.56z"/><path d="m279 752.42c-1.8.83-2.8-2.73-2.89-3.88a6.8 6.8 0 0 1 1.17-4.42c.78-1.1 2.63-2.42 3.86-1.13.82.86.61 2.08 1.73 2.8a.91.91 0 0 0 1.32-.54c.38-2 .89-4.29 2.42-5.78s3.55-1.88 5.11-.47c2.82 2.54 2 7.31-.53 9.67-1 .9.44 2.26 1.44 1.44a6.2 6.2 0 0 1 3.16-1.42c.63-.08.7 0 .71.63a8.24 8.24 0 0 1 -.11 1.49 10.06 10.06 0 0 1 -2.47 5 10.18 10.18 0 0 1 -4.51 3 8.43 8.43 0 0 1 -2.78.4c-.89 0-2.65-.41-2.46-1.67s-1.5-2.14-2.06-.87a3.15 3.15 0 0 1 -3.69 1.79c-1.73-.41-2.83-1.94-3.56-3.44-.51-1-2.34-.31-1.9.8a7.39 7.39 0 0 0 5.34 4.84 5.3 5.3 0 0 0 5.75-2.85l-2.05-.87c-.53 3.68 3.33 4.78 6.26 4.37a12.06 12.06 0 0 0 7.51-4.28 11.39 11.39 0 0 0 2.82-8.1c-.41-4-5.57-1.73-7.4-.17l1.44 1.44c3.46-3.25 4.09-9.79 0-12.87a5.46 5.46 0 0 0 -6.66.28c-2.28 1.72-3.08 4.56-3.53 7.25l1.32-.54c-.41-.26-.49-.94-.67-1.36a3.53 3.53 0 0 0 -.71-1.13 3.68 3.68 0 0 0 -2.58-1c-2.2 0-3.88 1.92-4.67 3.8a8.31 8.31 0 0 0 0 6.4c.72 1.69 2.52 3.72 4.49 2.52.68-.41.08-1.37-.62-1.05z"/><path d="m324.68 710.87a4.54 4.54 0 0 0 -4.32-4.14c-2.72-.23-4.93 1.94-5.94 4.27-2.13 5 .53 11 5.28 13.34a.92.92 0 0 0 1.11-1.44c-1.93-2-3.73 2.34-3.86 3.72a6.16 6.16 0 0 0 3.57 6.17 7.52 7.52 0 0 0 7.47-.86 9.35 9.35 0 0 0 3.51-7.68 1 1 0 0 0 -1.95-.27c-.64 2.12 1.34 3.9 3.39 3.71 2.33-.21 4.28-2.37 5.38-4.28a11.16 11.16 0 0 0 1.39-7c-.27-2-1.37-4.43-3.62-4.82s-2.84 2.33-1.88 3.85c1.18 1.88 3.85 1.36 5.12-.12 1.61-1.88 1.17-4.85.43-7a13.37 13.37 0 0 0 -4.2-6.05c-2-1.64-4.9-2.86-7.38-1.43-2.24 1.3-3 4.09-3.39 6.46-.25 1.38 1.87 2 2.12.58a9.32 9.32 0 0 1 1.62-4.52c1.4-1.64 3.59-.91 5.11.14 2.71 1.86 5.38 6 4.56 9.44-.17.72-1 2-1.91 1.61-.46-.18-.85-1.27 0-.66 1.38 1 1.52 3.17 1.41 4.68a9.16 9.16 0 0 1 -2.09 5.13 6.06 6.06 0 0 1 -2.14 1.76c-.76.32-2.41.26-2.05-1l-1.95-.26c.06 3.71-2.44 7.54-6.52 7.21a4.4 4.4 0 0 1 -3.89-2.75 4.53 4.53 0 0 1 -.24-2.28c.07-.42.52-2.16 1.16-2.11l-.65-.27.14.14 1.12-1.44a9.15 9.15 0 0 1 -5.17-9.29c.26-2.07 1.45-4.34 3.51-5.09 1.84-.67 4.32.4 4.51 2.5.07.76 1.24.78 1.2 0z"/><path d="m306.31 684.17a5.43 5.43 0 0 0 4.51 3.08 5.35 5.35 0 0 0 4.92-2.7.66.66 0 0 0 -1.14-.67 4.32 4.32 0 0 1 -3.78 2.07 4.26 4.26 0 0 1 -3.54-2.35c-.33-.66-1.27-.09-1 .57z"/><path d="m341.41 754.85a12.9 12.9 0 0 0 1.24-2.72l.59-1.41a2.23 2.23 0 0 1 .52-.91c.46-.38 1.15 0 1.48.35a5 5 0 0 1 .83 2.24.84.84 0 0 0 1.64-.23 2.2 2.2 0 0 1 3.71-1.77c.81.74 2-.43 1.21-1.22a3.85 3.85 0 0 0 -6.59 3l1.65-.22a6.17 6.17 0 0 0 -1.36-3 2.89 2.89 0 0 0 -2.74-.8c-1.11.32-1.5 1.38-1.89 2.35l-.75 1.92a8.58 8.58 0 0 0 -.67 1.94.62.62 0 0 0 1.13.47z"/></g><path d="m678.77 625.54c1.21-.32 2.37-.79 3.59-1.08a31.31 31.31 0 0 1 4.2-.64c2.69-.23 5.4-.3 8.1-.37 5.7-.16 11.41-.17 17.11-.06a.77.77 0 0 0 0-1.53q-8.92-.14-17.84.14c-2.75.09-5.52.15-8.25.5-2.43.31-5.22.72-7.33 2a.55.55 0 0 0 .42 1z" fill="#18c4ff"/><g fill="#fff"><path d="m323.51 405.17h50.27v75.99h-50.27z"/><path d="m319.37 395.36h58.55v13.49h-58.55z"/><path d="m489.03 347.14h50.27v134.03h-50.27z"/><path d="m484.89 337.33h58.55v13.49h-58.55z"/><path d="m654.55 429.74h50.27v49.95h-50.27z"/><path d="m650.41 419.93h58.55v13.49h-58.55z"/></g><path d="m404.58 319c-.22-4.69-.31-9.46.8-14s3.58-9 7.53-11.52a4.15 4.15 0 0 1 3.44-.81c1.59.54 2.15 2.54 2 4.22a10 10 0 0 1 -2.62 6 2.43 2.43 0 0 1 3.06 1.37 3.49 3.49 0 0 1 -.65 3.49 6.41 6.41 0 0 1 -3.15 1.91c.56-.09 1 .49 1.19 1a6.6 6.6 0 0 1 -.93 5.9 11.06 11.06 0 0 1 -4.87 3.71c-2.44 1-5.42 1.41-7.61-.08"/><path d="m397.09 323.78c-1.95.15-4 .27-5.67-.81s-2.17-3.86-.51-4.89a19 19 0 0 1 -4.68-2.28 4.18 4.18 0 0 1 -1.72-1.84c-.7-1.91 1.7-3.88 3.66-3.35a22.62 22.62 0 0 1 -6.6-4.83c-1.24-1.29-2.37-2.92-2.21-4.7.25-2.75 3.4-4.28 6.16-4.42a16.71 16.71 0 0 1 12.11 4.85 26.68 26.68 0 0 1 6.71 11.49 11.24 11.24 0 0 1 .52 6.32c-.59 2.07-2.52 3.88-4.66 3.66"/><path d="m395.23 326.55a33.79 33.79 0 0 1 27.12-13.34l-4.35 3.23a3.92 3.92 0 0 0 -1.05 1 4.59 4.59 0 0 0 -.38 2.27 11.2 11.2 0 0 1 -13.57 10.62 41.63 41.63 0 0 1 -5.17-1.8 23.9 23.9 0 0 0 -15.27-.19c-1.47.48-3 1.23-3.62 2.65s.55 3.49 2 3.15a1.91 1.91 0 1 0 2.47 2.9c-.5 1.18 1 2.38 2.28 2.1a5.27 5.27 0 0 0 2.84-2.44l5.76-8.11"/><g fill="#fff"><path d="m641.41 342.35c-.22-4.69-.32-9.45.8-14s3.57-9 7.52-11.51a4.12 4.12 0 0 1 3.44-.82c1.6.54 2.15 2.54 2 4.22a9.81 9.81 0 0 1 -2.62 6 2.47 2.47 0 0 1 3.07 1.37 3.52 3.52 0 0 1 -.66 3.49 6.33 6.33 0 0 1 -3.14 1.92c.55-.09 1 .49 1.18 1a6.58 6.58 0 0 1 -.93 5.89 11 11 0 0 1 -4.87 3.72c-2.44 1-5.42 1.4-7.6-.08"/><path d="m633.91 347.09c-1.94.16-4 .27-5.67-.81s-2.16-3.86-.51-4.88a19.54 19.54 0 0 1 -4.68-2.29 4.05 4.05 0 0 1 -1.71-1.84c-.7-1.91 1.69-3.87 3.65-3.34a22.93 22.93 0 0 1 -6.6-4.83c-1.23-1.3-2.37-2.93-2.21-4.71.25-2.75 3.41-4.28 6.16-4.42a16.73 16.73 0 0 1 12.11 4.85 26.58 26.58 0 0 1 6.71 11.44 11.24 11.24 0 0 1 .52 6.32c-.59 2.07-2.52 3.89-4.66 3.67"/><path d="m632.06 349.86a33.76 33.76 0 0 1 27.12-13.34l-4.36 3.24a3.92 3.92 0 0 0 -1.05 1 4.66 4.66 0 0 0 -.38 2.27 11.2 11.2 0 0 1 -13.54 10.6 43.38 43.38 0 0 1 -5.17-1.81 23.9 23.9 0 0 0 -15.27-.19c-1.47.48-3 1.23-3.62 2.66s.55 3.49 2.06 3.15a1.91 1.91 0 1 0 2.46 2.9c-.5 1.17 1 2.38 2.29 2.1a5.33 5.33 0 0 0 2.83-2.44l5.77-8.12"/><path d="m307.98 257.29h13.38v13.38h-13.38z"/><path d="m323.28 257.29h13.38v13.38h-13.38z"/><path d="m338.59 257.29h13.38v13.38h-13.38z"/><path d="m353.89 257.29h13.38v13.38h-13.38z"/><path d="m369.2 257.29h13.38v13.38h-13.38z"/><path d="m384.5 257.29h13.38v13.38h-13.38z"/><path d="m484.89 289.95h13.38v13.38h-13.38z"/><path d="m500.19 289.95h13.38v13.38h-13.38z"/><path d="m515.5 289.95h13.38v13.38h-13.38z"/><path d="m530.8 289.95h13.38v13.38h-13.38z"/><path d="m546.11 289.95h13.38v13.38h-13.38z"/><path d="m561.41 289.95h13.38v13.38h-13.38z"/><path d="m619.06 379.13h13.38v13.38h-13.38z"/><path d="m634.36 379.13h13.38v13.38h-13.38z"/><path d="m649.67 379.13h13.38v13.38h-13.38z"/><path d="m664.97 379.13h13.38v13.38h-13.38z"/><path d="m680.28 379.13h13.38v13.38h-13.38z"/><path d="m695.58 379.13h13.38v13.38h-13.38z"/></g></svg>