<?xml version="1.0" ?><svg id="Layer_1" style="enable-background:new 0 0 512 512;" version="1.1" viewBox="0 0 512 512" xml:space="preserve" xmlns="http://www.w3.org/2000/svg" xmlns:xlink="http://www.w3.org/1999/xlink"><g><path d="M413.365,365.438c6.181,8.754,8.584,19.381,6.773,29.939   c-1.817,10.558-7.638,19.782-16.385,25.963c-8.748,6.181-19.415,8.591-29.939,6.774c-21.798-3.751-36.481-24.527-32.737-46.325   c0.9-5.218,3.116-9.995,5.907-14.424c2.296,1.266,4.748,2.136,7.32,2.136c3.275,0,6.555-1.042,9.333-3.152l23.053-17.572   c0.247,0.079,0.451,0.231,0.711,0.275C397.96,350.87,407.184,356.69,413.365,365.438z" style="opacity:0.5;fill:#AAB2BD;"/><path d="M409.892,54.506l64.728,45.928l-42.395,66.62l-28.011,16.277l-66.451,5.542l-38.779,30.039   c0,0-20.819,15.52,3.407,23.847l28.768-13.248c0,0,17.221-7.635,21.576-1.778l-10.22,27.896l-61.906,63.592   c0,0-9.509,15.898,7.273,20.819l-5.93,14.258l-13.375,54.886l-14.889-1.766l-2.145-23.973c0,0-21.071,3.911-21.071-5.93   l1.766-56.779l20.945-45.675l15.135-32.805c0,0-38.138,44.414-61.713,1.009c0,0,48.092-31.291,51.877-47.946l62.583-19.179   L409.892,54.506z" style="fill:#F0D0B4;"/><rect height="85.924" style="fill:#FFFFFF;" width="134.14" x="40.564" y="315.179"/><path d="M47.67,249.248h11.634h96.658h11.634c3.921,0,7.107,3.186,7.107,7.107v47.672H40.564v-14.023h67.686   c3.077,0,5.575-2.498,5.575-5.575c0-3.077-2.498-5.575-5.575-5.575H40.564v-22.499C40.564,252.434,43.75,249.248,47.67,249.248z" style="fill:#0C82ED;"/><path d="M159.578,466.978H55.689c-8.339,0-15.126-6.787-15.126-15.126v-39.599h134.14v12.246H101.68   c-3.077,0-5.575,2.498-5.575,5.575c0,3.077,2.498,5.575,5.575,5.575h73.023v16.201C174.704,460.19,167.916,466.978,159.578,466.978   z" style="fill:#0C82ED;"/><path d="M79.964,171.528h16.029c0.176,0.016,0.326,0.102,0.505,0.102h19.531   c0.181,0,0.334-0.085,0.511-0.102h18.761v34.69H79.964V171.528z" style="fill:#AAB2BD;"/><polygon points="64.88,217.369 74.39,217.369 140.878,217.369 150.388,217.369 150.388,238.098    64.88,238.098  " style="fill:#AAB2BD;"/><path d="M102.075,130.478c3.012-0.024,5.944-0.263,8.802-0.673l-0.361,30.573h-8.442V130.478z" style="opacity:0.5;fill:#AAB2BD;"/><path d="M72.613,105.639c0-6.481,12.363-13.724,28.911-13.724   c6.767,0,13.152,1.184,18.476,3.411c14.99,6.297,28.782,10.327,42.662,12.369l26.277,1.498l-19.946,0.095   c-16.753,0.299-34.397,3.029-53.928,8.346c-4.201,1.144-8.754,1.73-13.54,1.73C84.975,119.363,72.613,112.119,72.613,105.639z" style="opacity:0.5;fill:#AAB2BD;"/><polygon points="50.294,321.493 50.294,407.039 37.802,407.039 37.802,310.515 177.667,310.515    177.667,321.619  " style="opacity:0.5;fill:#AAB2BD;"/><path d="M445.198,158.557l-37.83,25.909l-60.907,6.286c-9.314,0.961-17.857,5.189-24.822,11.446   c-9.675,8.693-20.041,12.295-26.062,17.281c-3.87,3.205-12.302,15.52,3.028,19.873c15.331,4.353,39.158-15.898,39.158-15.898   l14.719,3.533l-9.21,28.894l-23.721,23.595l-44.162,47.694l18.548,12.239l-11.608,12.744l4.475,4.385l-3.592,2.24l-8.328,40.06   l12.113,2.264l11.608-6.049l21.324,1.052l3.316-31.186l18.386-11.882l11.482,13.164l66.242-51.022l47.316-78.266l12.113-9.18   L445.198,158.557z" style="fill:#F0D0B4;"/><g><path d="M481.031,223.945c-2.083-2.267-5.616-2.39-7.876-0.306l-10.756,9.946c-0.395,0.361-0.735,0.783-1.008,1.246    l-46.597,78.497L356.87,357.48c-1.715,1.293-4.132,1.116-5.623-0.429c-1.198-1.239-1.259-2.675-1.191-3.417    c0.068-0.735,0.389-2.131,2.213-3.465l37.857-33.043c2.321-2.021,2.56-5.548,0.53-7.869c-2.029-2.314-5.534-2.553-7.869-0.53    l-37.428,32.709c-0.965,0.69-1.563,1.704-2.333,2.578c-0.228,0.154-0.488,0.231-0.696,0.425l-18.346,16.882    c-1.722,1.539-4.364,1.389-5.916-0.354c-1.505-1.682-1.436-4.268,0.142-5.882l2.144-2.173    c14.716-12.831,36.405-31.892,51.587-45.247c2.314-2.036,2.539-5.555,0.503-7.869c-2.049-2.321-5.582-2.532-7.869-0.503    c-16.148,14.206-37.645,33.076-51.806,45.44c-0.005,0.005-0.013,0.008-0.019,0.013l-0.027,0.027    c-8.099,7.071-13.81,12.025-14.678,12.697c-3.057,2.055-5.732,0.259-6.474-0.334c-0.742-0.599-3.057-2.818-1.681-6.243    c2.825-7.073,9.272-13.043,9.34-13.097c0.088-0.081,0.12-0.193,0.201-0.277c1.409-1.08,2.812-2.127,4.265-3.488    c13.999-13.111,46.556-42.423,46.556-42.423l-0.023-0.026c2.008-2.081,2.18-5.359,0.242-7.575    c-1.986-2.265-5.348-2.489-7.636-0.642c0,0-31.902,28.604-46.764,42.525c-3.901,3.655-6.725,5.269-8.414,5.984    c-1.886,0.762-4.071,0.061-4.799-1.573c-1.872-4.173,4.547-12.193,9.782-16.576l44.541-42.86c3.663-3.52,6.57-7.652,8.653-12.281    l12.226-27.148c1-2.199,0.947-4.697-0.136-6.854c-1.082-2.159-3.056-3.69-5.425-4.207l-4.023-0.865    c-7.23-1.558-14.766,0.096-20.695,4.494l-9.49,7.046c-10.796,7.406-18.897,4.316-21.185,3.165    c-0.974-1.436-1.831-3.199-1.511-4.636c0.368-1.654,2.416-3.566,5.636-5.241c10.361-5.405,19.565-12.526,27.359-21.171    c3.669-4.077,8.325-6.922,13.227-8.162c2.832-0.496,40.164-4.186,63.037-6.391c0.497-0.048,0.98-0.157,1.45-0.34    c1.271-0.483,4.076-1.571,26.38-16.256c0.269-0.125,0.48-0.314,0.727-0.48c9.654-6.364,22.784-15.151,40.967-27.499    c2.553-1.729,3.213-5.201,1.484-7.746c-1.743-2.56-5.201-3.227-7.747-1.484c-6.409,4.353-12.191,8.262-17.417,11.781    l29.534-44.246c1.716-2.56,1.021-6.024-1.539-7.733c-2.587-1.736-6.031-1.014-7.733,1.539l-44.425,66.554    c-16.6,10.927-21.963,14.043-23.663,14.896c-28.019,2.709-61.396,5.997-63.546,6.542c-7.291,1.831-13.866,5.834-19.02,11.566    c-6.896,7.645-15.051,13.955-24.227,18.741c-6.413,3.343-10.238,7.618-11.376,12.71c-1.055,4.751,0.334,9.686,4.139,14.663    c0.355,0.456,0.777,0.857,1.246,1.191c0.62,0.436,15.371,10.409,34.684-2.887l9.652-7.162c3.363-2.485,7.611-3.445,11.709-2.546    l0.142,0.027l-10.613,23.567c-1.498,3.322-3.588,6.29-6.216,8.822l-44.228,42.581c-1.927,1.586-18.604,15.929-12.539,29.449    c1.743,3.884,5.104,6.588,8.99,7.78c-0.745,1.347-1.55,2.64-2.134,4.106c-0.473,1.18-0.62,2.38-0.82,3.577    c-0.065,0.191-0.197,0.339-0.242,0.541L267.89,398.5c-0.361,3.084-2.955,5.432-6.031,5.46c-0.02,0-0.04,0-0.054,0    c-1.722,0-3.315-0.701-4.486-1.981c-1.205-1.307-1.77-3.009-1.62-4.621l2.443-19.54c2.785-12.714,3.878-42.208,4.187-53.088    l13.027-23.257l1.206,0.806c0.947,0.639,2.029,0.94,3.091,0.94c1.804,0,3.567-0.864,4.643-2.478    c1.708-2.56,1.021-6.018-1.539-7.733l-15.868-10.613c-2.566-1.73-6.031-1.034-7.733,1.539c-1.709,2.56-1.021,6.018,1.539,7.733    l5.361,3.586l-14.129,25.231c-0.442,0.79-0.681,1.668-0.708,2.573c-0.518,19.285-1.852,43.289-4.044,52.812    c-0.531,2.294-2.9,3.982-5.63,4.016c-1.634,0.272-3.513-0.667-4.691-1.893c-0.953-1.001-1.45-2.253-1.382-3.479l3.261-53.949    c0.654-2.641,8.216-20.565,14.295-34.97c0.43-1.018,0.817-1.936,1.235-2.926c0.005-0.012,0.013-0.017,0.018-0.029    c0.004-0.008,0.001-0.017,0.005-0.025c6.886-16.317,12.088-28.749,14.864-36.152l12.682,6.334c2.743,1.41,6.107,0.252,7.481-2.498    c1.376-2.758,0.259-6.107-2.498-7.481l-17.712-8.85c-1.278-0.634-2.664-0.668-3.954-0.312c-2.085,0.269-3.842,1.768-4.583,3.805    c-8.54,10.493-16.676,16.957-23.594,18.441c-9.632,2.07-16.991,1.266-21.327-2.287c-2.921-2.396-4.173-5.766-4.711-8.244    c14.609-6.712,24.929-14.241,30.708-22.424c9.775-13.847,20.497-25.643,26.678-29.36c4.139-2.485,8.741-4.201,13.683-5.099    l41.92-7.557c1.151-0.204,2.206-0.769,3.023-1.607c17.884-18.476,96.148-131.792,99.47-136.611    c1.749-2.532,1.116-6.004-1.423-7.754c-2.553-1.756-6.011-1.123-7.754,1.422c-0.79,1.144-77.652,112.432-97.115,133.902    l-40.103,7.23c-6.283,1.137-12.151,3.329-17.447,6.515c-9.102,5.472-21.491,20.368-30.041,32.478    c-4.99,7.066-15.282,14.078-29.776,20.287c-1.995,0.858-3.309,2.791-3.377,4.963c-0.013,0.511-0.259,12.607,9.047,20.368    c4.847,4.037,11.178,6.065,18.905,6.065c3.676,0,7.672-0.462,11.968-1.382c3.876-0.828,7.781-2.696,11.725-5.207    c-1.609,3.857-3.298,7.877-4.975,11.858c-8.914-3.618-18.505-4.151-27.076-1.477c-8.993,2.818-15.766,8.802-19.081,16.841    c-3.581,8.666-2.492,18.618,2.702,27.223c-3.574,2.437-6.345,5.759-7.951,9.66c-2.539,6.141-2.097,13.009,1.232,19.347    c2.58,4.908,6.672,9.027,11.722,11.866c-1.089,4.071-0.552,8.536,1.558,12.546c2.307,4.39,6.27,7.917,11.136,9.918    c1.733,0.723,3.558,1.148,5.399,1.428c0.756,1.763,1.727,3.455,3.117,4.904c3.254,3.39,7.856,5.324,12.669,5.324    c0.061,0,0.123,0,0.184,0c1.284-0.015,2.46-0.365,3.664-0.633l-0.717,5.732c-0.463,4.895,1.171,9.775,4.494,13.39    c3.26,3.56,7.89,5.589,12.702,5.589c0.055,0,0.102,0,0.157,0c7.148-0.067,13.146-4.624,15.635-10.712    c1.96,1.313,4.158,2.256,6.516,2.646c0.946,0.157,1.885,0.231,2.811,0.231c5.323,0,10.06-2.67,13.155-6.807    c1.885,1.33,3.995,2.374,6.43,2.784c0.864,0.143,1.736,0.218,2.6,0.218c3.445,0,6.848-1.13,9.619-3.254    c3.485-2.662,5.732-6.699,6.161-11.089l1.587-16.569c1.778-0.648,3.473-1.617,4.983-2.948l2.568-2.363    c-1.833,4.012-3.178,8.258-3.936,12.656c-2.322,13.499,0.749,27.087,8.652,38.271c7.903,11.178,19.687,18.618,33.179,20.932    c2.94,0.511,5.875,0.756,8.795,0.756c10.497,0,20.722-3.226,29.477-9.408c11.178-7.903,18.618-19.687,20.932-33.179    c2.322-13.492-0.749-27.08-8.652-38.264c-6.199-8.773-14.832-15.133-24.757-18.632l24.702-18.829    c0.565-0.436,1.049-0.974,1.41-1.593l46.74-78.728l10.157-9.402C482.985,229.732,483.128,226.206,481.031,223.945z     M227.679,319.261l-3.049,49.824c-0.025-0.01-0.051-0.005-0.076-0.014c-2.43-1.006-4.445-2.755-5.527-4.81    c-0.531-1.015-1.301-3.016-0.463-5.052c0.17-0.395,0.463-0.83,0.94-1.368c1.259-1.41,1.715-3.363,1.219-5.188    c-0.504-1.824-1.893-3.268-3.696-3.84c-0.055-0.02-1.566-0.476-1.62-0.49c-4.288-1.77-7.72-4.779-9.66-8.468    c-1.763-3.356-2.049-6.876-0.796-9.899c1.266-3.07,4.016-5.377,7.733-6.501c1.832-0.551,3.254-2.001,3.764-3.846    c0.517-1.845,0.047-3.819-1.24-5.235c-5.854-6.453-7.773-14.615-5.01-21.307c2.036-4.929,6.339-8.639,12.117-10.457    c6.034-1.881,12.861-1.474,19.395,1.126C229.214,313.364,227.792,317.206,227.679,319.261z M293.914,383.165    c-0.079,0.266-0.233,0.492-0.27,0.776l-0.204,1.511c-0.008,0.064,0.019,0.121,0.012,0.184l-1.114,5.936    c-0.6,3.002-3.446,4.921-6.392,4.466c-1.525-0.252-2.845-1.11-3.71-2.403c-0.879-1.314-1.171-2.887-0.817-4.432l2.138-9.313    c0.047-0.202-0.007-0.393,0.016-0.594l2.782-12.479c2.716,1.704,5.661,2.78,8.686,2.78c0.492,0,0.972-0.176,1.463-0.221    L293.914,383.165z M313.794,388.045c-0.13,1.328-0.784,2.499-1.839,3.309c-1.034,0.783-2.341,1.11-3.594,0.892    c-2.462-0.414-4.095-2.681-3.832-5.168l3.915-20.877c0.455,0.726,0.717,1.533,1.306,2.192c1.576,1.772,3.493,3.032,5.555,3.886    L313.794,388.045z M413.365,365.438c6.181,8.754,8.584,19.381,6.773,29.939c-1.817,10.558-7.638,19.782-16.385,25.963    c-8.748,6.181-19.415,8.591-29.939,6.774c-21.798-3.751-36.481-24.527-32.737-46.325c0.9-5.218,3.116-9.995,5.907-14.424    c2.296,1.266,4.748,2.136,7.32,2.136c3.275,0,6.555-1.042,9.333-3.152l23.053-17.572c0.247,0.079,0.451,0.231,0.711,0.275    C397.96,350.87,407.184,356.69,413.365,365.438z"/><path d="M167.597,238.098h-6.058v-26.303c0-3.078-2.498-5.575-5.575-5.575h-9.51v-40.266c0-3.078-2.498-5.575-5.575-5.575h-19.205    l0.386-32.983c16.983-4.35,32.484-6.691,47.062-6.957l31.934-0.15c3.07-0.013,5.548-2.505,5.548-5.575v-10.415    c0-2.955-2.307-5.399-5.256-5.568l-37.543-2.117c-12.45-1.851-25.365-5.636-39.49-11.566c-6.678-2.805-14.561-4.282-22.791-4.282    c-22.465,0-40.062,10.926-40.062,24.875c0,11.646,12.339,21.086,29.463,23.919v30.818H74.389c-3.077,0-5.575,2.498-5.575,5.575    v40.266h-9.511c-3.078,0-5.575,2.498-5.575,5.575v26.303H47.67c-10.068,0-18.257,8.19-18.257,18.258v53.247v97.073v45.174    c0,14.493,11.783,26.277,26.277,26.277h103.888c14.493,0,26.278-11.784,26.278-26.277v-45.174v-97.073v-53.247    C185.855,246.287,177.665,238.098,167.597,238.098z M72.613,105.639c0-6.48,12.362-13.723,28.911-13.723    c6.767,0,13.152,1.185,18.476,3.411c14.99,6.297,28.782,10.327,42.663,12.369l26.277,1.498l-19.946,0.095    c-16.753,0.3-34.398,3.029-53.928,8.346c-4.201,1.144-8.754,1.729-13.541,1.729C84.975,119.363,72.613,112.12,72.613,105.639z     M110.877,129.805l-0.361,30.573h-8.442v-29.899C105.087,130.455,108.019,130.215,110.877,129.805z M79.964,171.528h16.029    c0.176,0.016,0.326,0.102,0.505,0.102h19.531c0.181,0,0.335-0.085,0.511-0.102h18.761v34.69H79.964V171.528z M64.879,217.369h9.51    h66.488h9.51v20.729H64.879V217.369z M174.703,424.498H101.68c-3.078,0-5.575,2.498-5.575,5.575c0,3.077,2.498,5.575,5.575,5.575    h73.023v16.201c0.001,8.341-6.787,15.128-15.125,15.128H55.689c-8.338,0-15.126-6.787-15.126-15.126v-39.599h134.141V424.498z     M174.704,401.102H40.564v-85.924h134.141V401.102z M174.704,304.028H40.564v-14.023h67.686c3.077,0,5.575-2.498,5.575-5.575    c0-3.077-2.498-5.575-5.575-5.575H40.564v-22.499c0-3.922,3.186-7.108,7.107-7.108h11.634h96.658h11.634    c3.921,0,7.107,3.186,7.107,7.107V304.028z"/><path d="M216.652,186.137c0.027-5.963-4.044-14.432-10.259-26.672c-1.341-2.635-2.655-5.222-3.812-7.625    c-2.458-5.098-3.581-9.374-4.124-11.75c-0.586-2.519-2.914-3.927-5.501-3.935c-0.006,0-0.013,0-0.02,0    c-2.58,0-4.915,2.144-5.514,4.649c-0.389,1.6-1.552,5.861-4.057,10.939c-1.184,2.39-2.519,4.963-3.887,7.584    c-6.338,12.185-10.497,20.612-10.524,26.577c-0.034,6.678,2.362,12.996,6.753,17.774c4.493,4.902,10.517,7.618,16.971,7.645    c0.041,0,0.082,0,0.123,0c6.406,0,12.416-2.648,16.93-7.474C214.159,199.112,216.618,192.822,216.652,186.137z M201.58,196.226    c-2.375,2.546-5.5,3.948-8.782,3.948c-0.021,0-0.047,0-0.068,0c-3.309-0.013-6.44-1.45-8.809-4.037    c-2.485-2.703-3.84-6.317-3.819-10.177c0.021-3.71,5.582-14.405,9.265-21.478c1.246-2.396,2.471-4.745,3.574-6.957    c1.082,2.226,2.28,4.587,3.507,6.991c3.608,7.114,9.067,17.863,9.053,21.573C205.48,189.949,204.091,193.55,201.58,196.226z"/><path d="M336.305,104.815c0.382,0,0.769-0.006,1.151-0.02c8.564-0.3,16.502-3.914,22.349-10.184    c5.848-6.27,8.905-14.439,8.605-23.009c-0.3-8.564-3.914-16.502-10.184-22.349c-12.941-12.07-33.302-11.354-45.365,1.579    c-5.848,6.27-8.905,14.439-8.605,23.009c0.3,8.57,3.921,16.508,10.191,22.349C320.437,101.772,328.157,104.815,336.305,104.815z     M321.016,58.443c4.118-4.411,9.714-6.644,15.324-6.644c5.119,0,10.253,1.858,14.275,5.609c4.091,3.812,6.453,8.992,6.644,14.581    c0.197,5.589-1.797,10.926-5.609,15.01c-7.883,8.455-21.171,8.897-29.591,1.034c-4.099-3.819-6.454-8.992-6.651-14.581    C315.209,67.864,317.204,62.528,321.016,58.443z"/><path d="M280.593,139.962c0.279,0,0.558-0.006,0.837-0.013c6.256-0.218,12.056-2.866,16.33-7.44    c8.816-9.455,8.291-24.323-1.157-33.145c-9.455-8.816-24.329-8.298-33.139,1.157c-4.275,4.581-6.508,10.552-6.283,16.807    c0.218,6.263,2.859,12.063,7.44,16.331C269,137.743,274.643,139.962,280.593,139.962z M271.621,108.13    c2.416-2.594,5.704-3.908,9-3.908c3.002,0,6.011,1.089,8.373,3.295c4.956,4.621,5.235,12.424,0.613,17.379    c-4.615,4.982-12.43,5.235-17.372,0.605c-2.403-2.24-3.792-5.283-3.908-8.564C268.211,113.658,269.381,110.527,271.621,108.13z"/><path d="M377.457,406.955c-3.023-0.463-5.916,1.518-6.44,4.547c-0.525,3.038,1.51,5.925,4.547,6.441    c1.709,0.293,3.418,0.442,5.112,0.442c6.099,0,12.042-1.878,17.128-5.473c6.494-4.587,10.817-11.437,12.165-19.279    c0.524-3.036-1.511-5.922-4.547-6.44c-2.989-0.49-5.922,1.511-6.44,4.548C397.239,401.87,387.613,408.739,377.457,406.955z"/></g><path d="M321.016,58.443c4.118-4.411,9.714-6.644,15.324-6.644   c5.119,0,10.253,1.858,14.275,5.609c4.091,3.812,6.453,8.992,6.644,14.581c0.197,5.589-1.797,10.926-5.609,15.01   c-7.883,8.455-21.171,8.897-29.591,1.034c-4.099-3.819-6.454-8.992-6.651-14.581C315.209,67.864,317.204,62.528,321.016,58.443z" style="opacity:0.5;fill:#AAB2BD;"/><path d="M271.618,108.133c2.416-2.594,5.704-3.908,9-3.908c3.002,0,6.011,1.089,8.373,3.295   c4.956,4.621,5.235,12.424,0.613,17.379c-4.615,4.982-12.43,5.235-17.372,0.605c-2.403-2.24-3.792-5.283-3.908-8.564   C268.208,113.661,269.379,110.529,271.618,108.133z" style="opacity:0.5;fill:#AAB2BD;"/><path d="M227.679,319.261l-3.049,49.824c-0.025-0.01-0.051-0.005-0.076-0.014   c-2.43-1.006-4.445-2.755-5.527-4.81c-0.531-1.015-1.301-3.016-0.463-5.052c0.17-0.395,0.463-0.83,0.94-1.368   c1.259-1.41,1.715-3.363,1.219-5.188c-0.504-1.824-1.893-3.268-3.696-3.84c-0.055-0.02-1.566-0.476-1.62-0.49   c-4.288-1.77-7.72-4.779-9.66-8.468c-1.763-3.356-2.049-6.876-0.796-9.899c1.266-3.07,4.016-5.377,7.733-6.501   c1.832-0.551,3.254-2.001,3.764-3.846c0.517-1.845,0.047-3.819-1.24-5.235c-5.854-6.453-7.773-14.615-5.01-21.307   c2.036-4.929,6.339-8.639,12.117-10.457c6.034-1.881,12.861-1.474,19.395,1.126C229.214,313.364,227.792,317.206,227.679,319.261z" style="opacity:0.5;fill:#AAB2BD;"/><path d="M201.58,196.226c-2.375,2.546-5.5,3.948-8.782,3.948c-0.021,0-0.047,0-0.068,0   c-3.309-0.013-6.44-1.45-8.809-4.037c-2.485-2.703-3.84-6.317-3.819-10.177c0.021-3.71,5.582-14.405,9.265-21.478   c1.246-2.396,2.471-4.745,3.574-6.957c1.082,2.226,2.28,4.587,3.507,6.991c3.608,7.114,9.067,17.863,9.053,21.573   C205.48,189.949,204.091,193.55,201.58,196.226z" style="fill:#80D3E0;"/></g></svg>